<svg width="40" height="40" viewBox="0 0 40 40" fill="none" xmlns="http://www.w3.org/2000/svg">
<g id="jam:refresh">
<path id="Vector" d="M32.3867 12.3154L31.8009 11.4333C30.28 9.14307 28.1641 7.31038 25.6802 6.13197C23.1964 4.95356 20.4385 4.47394 17.7026 4.74463C14.9668 5.01531 12.3564 6.02606 10.1516 7.66836C7.94683 9.31065 6.23103 11.5225 5.18842 14.0663L5.18828 14.0666L4.75494 15.1216L4.74996 15.1338L4.7498 15.1337C4.68682 15.2763 4.65305 15.43 4.65048 15.5859C4.64791 15.7417 4.67659 15.8965 4.73484 16.0411C4.79309 16.1857 4.87971 16.3171 4.98961 16.4277C5.0995 16.5382 5.23042 16.6256 5.37466 16.6847C5.51889 16.7438 5.6735 16.7734 5.82936 16.7717C5.98522 16.7701 6.13917 16.7372 6.28212 16.6751C6.42506 16.6129 6.55411 16.5228 6.66163 16.4099C6.76915 16.2971 6.85297 16.1638 6.90814 16.018L6.91309 16.005L6.91327 16.005L7.34645 14.9504C7.34648 14.9503 7.34651 14.9502 7.34655 14.9502C7.34656 14.9501 7.34658 14.9501 7.3466 14.95C8.22976 12.7951 9.68403 10.9219 11.5528 9.53215C13.4217 8.14232 15.6344 7.28868 17.9524 7.06315C20.2705 6.83762 22.6062 7.24876 24.708 8.25227C26.8097 9.25579 28.5979 10.8137 29.8799 12.7581L30.6441 13.9173L29.3163 13.5115L26.5296 12.6598L26.5187 12.6565L26.5187 12.6564C26.3712 12.6076 26.2154 12.5887 26.0604 12.601C25.9055 12.6132 25.7546 12.6563 25.6165 12.7277C25.4784 12.7991 25.356 12.8973 25.2565 13.0167C25.1569 13.136 25.0822 13.2741 25.0367 13.4227C24.9913 13.5713 24.976 13.7275 24.9917 13.8821C25.0074 14.0368 25.0539 14.1867 25.1284 14.3231C25.2029 14.4595 25.3038 14.5797 25.4254 14.6765C25.547 14.7734 25.6866 14.8449 25.8362 14.887L25.8471 14.8901L25.847 14.8902L32.2216 16.8401C32.5174 16.9303 32.837 16.8994 33.11 16.7541C33.383 16.6089 33.5872 16.3612 33.6776 16.0654L35.6276 9.69046C35.6724 9.5439 35.688 9.38995 35.6733 9.23739C35.6586 9.08484 35.614 8.93667 35.5421 8.80135C35.4701 8.66603 35.3722 8.5462 35.254 8.44871C35.1357 8.35121 34.9994 8.27797 34.8529 8.23315C34.7063 8.18833 34.5524 8.17282 34.3998 8.1875C34.2473 8.20218 34.0991 8.24676 33.9638 8.3187C33.8285 8.39064 33.7086 8.48853 33.6111 8.60679C33.5137 8.72494 33.4405 8.86112 33.3957 9.00755L32.3867 12.3154ZM32.3867 12.3154L32.6957 11.3025L33.3956 9.00789L32.3867 12.3154ZM6.75799 28.5596L6.129 27.6548L5.8623 28.724L5.3173 30.909L5.31717 30.909L5.31464 30.9202C5.2805 31.0719 5.21639 31.2153 5.12607 31.3418C5.03576 31.4684 4.92105 31.5756 4.7887 31.6572C4.65635 31.7388 4.50902 31.7931 4.35538 31.817C4.20174 31.8408 4.04488 31.8337 3.89402 31.7961C3.74317 31.7584 3.60135 31.691 3.47692 31.5978C3.35248 31.5046 3.24794 31.3874 3.16943 31.2532C3.09092 31.119 3.04002 30.9705 3.01974 30.8163C2.99945 30.6622 3.01018 30.5055 3.0513 30.3556L3.05144 30.3556L3.05427 30.3443L4.66593 23.8776L4.66619 23.8766C4.70425 23.7224 4.77337 23.5777 4.86931 23.4512C4.96525 23.3247 5.08599 23.2192 5.22415 23.141C5.36231 23.0628 5.51498 23.0136 5.6728 22.9964C5.83063 22.9793 5.99029 22.9945 6.14202 23.0412L6.15501 23.0452L6.1682 23.0485L12.5481 24.6385C12.5482 24.6385 12.5482 24.6385 12.5482 24.6385C12.8485 24.7134 13.1067 24.9045 13.2661 25.1698C13.4255 25.4351 13.473 25.7529 13.3981 26.0532C13.3232 26.3535 13.1321 26.6118 12.8668 26.7712C12.6015 26.9306 12.2837 26.9781 11.9834 26.9032L11.9833 26.9032L9.00666 26.1615L7.77042 25.8535L8.46717 26.9201C9.7914 28.9473 11.6632 30.5576 13.8655 31.5641C16.0678 32.5707 18.5103 32.9322 20.9098 32.6069C23.3092 32.2815 25.5672 31.2826 27.422 29.726C29.2767 28.1693 30.6522 26.1188 31.3887 23.8121L31.3888 23.812C31.4829 23.517 31.6902 23.2716 31.9653 23.1296C32.1015 23.0592 32.2502 23.0164 32.4029 23.0036C32.5557 22.9907 32.7095 23.0081 32.8555 23.0547C33.0015 23.1013 33.1369 23.1762 33.254 23.2751C33.3711 23.374 33.4676 23.495 33.5379 23.6312C33.6082 23.7674 33.651 23.9161 33.6639 24.0689C33.6767 24.2216 33.6593 24.3754 33.6128 24.5214L33.6127 24.5215C32.9411 26.6285 31.8159 28.5627 30.3162 30.188C28.8166 31.8134 26.979 33.0903 24.9328 33.929C21.7445 35.2352 18.206 35.415 14.9017 34.4388C11.5973 33.4626 8.72466 31.3887 6.75799 28.5596Z" fill="#EC5C2E" stroke="#EC5C2E"/>
</g>
</svg>
