<svg width="240" height="246" viewBox="0 0 240 246" fill="none" xmlns="http://www.w3.org/2000/svg">
<rect x="84" y="35" width="72" height="72" rx="16" fill="#F3DCD5"/>
<path d="M132.387 63.3154L131.801 62.4333C130.28 60.1431 128.164 58.3104 125.68 57.132C123.196 55.9536 120.438 55.4739 117.703 55.7446C114.967 56.0153 112.356 57.0261 110.152 58.6684C107.947 60.3107 106.231 62.5225 105.188 65.0663L105.188 65.0666L104.755 66.1216L104.75 66.1338L104.75 66.1337C104.687 66.2763 104.653 66.43 104.65 66.5859C104.648 66.7417 104.677 66.8965 104.735 67.0411C104.793 67.1857 104.88 67.3171 104.99 67.4277C105.099 67.5382 105.23 67.6256 105.375 67.6847C105.519 67.7438 105.674 67.7734 105.829 67.7717C105.985 67.7701 106.139 67.7372 106.282 67.6751C106.425 67.6129 106.554 67.5228 106.662 67.4099C106.769 67.2971 106.853 67.1638 106.908 67.018L106.913 67.005L106.913 67.005L107.346 65.9504C107.346 65.9503 107.347 65.9502 107.347 65.9502C107.347 65.9501 107.347 65.9501 107.347 65.95C108.23 63.7951 109.684 61.9219 111.553 60.5321C113.422 59.1423 115.634 58.2887 117.952 58.0631C120.271 57.8376 122.606 58.2488 124.708 59.2523C126.81 60.2558 128.598 61.8137 129.88 63.7581L130.644 64.9173L129.316 64.5115L126.53 63.6598L126.519 63.6565L126.519 63.6564C126.371 63.6076 126.215 63.5887 126.06 63.601C125.905 63.6132 125.755 63.6563 125.617 63.7277C125.478 63.7991 125.356 63.8973 125.256 64.0167C125.157 64.136 125.082 64.2741 125.037 64.4227C124.991 64.5713 124.976 64.7275 124.992 64.8821C125.007 65.0368 125.054 65.1867 125.128 65.3231C125.203 65.4595 125.304 65.5797 125.425 65.6765C125.547 65.7734 125.687 65.8449 125.836 65.887L125.847 65.8901L125.847 65.8902L132.222 67.8401L132.387 63.3154ZM132.387 63.3154L132.696 62.3025L133.396 60.0079M132.387 63.3154L133.396 60.0079M133.396 60.0079C133.396 60.0078 133.396 60.0077 133.396 60.0075L133.396 60.0079ZM135.628 60.6905L133.678 67.0654C133.587 67.3612 133.383 67.6089 133.11 67.7541C132.837 67.8993 132.518 67.9303 132.222 67.8402L135.628 60.6905ZM106.758 79.5596L106.129 78.6548L105.862 79.724L105.317 81.909L105.317 81.909L105.315 81.9202C105.281 82.0719 105.216 82.2153 105.126 82.3418L105.533 82.6323L105.126 82.3418C105.036 82.4684 104.921 82.5756 104.789 82.6572C104.656 82.7388 104.509 82.7931 104.355 82.817C104.202 82.8408 104.045 82.8337 103.894 82.7961C103.743 82.7584 103.601 82.691 103.477 82.5978C103.352 82.5046 103.248 82.3874 103.169 82.2532C103.091 82.119 103.04 81.9705 103.02 81.8163C102.999 81.6622 103.01 81.5055 103.051 81.3556L103.051 81.3556L103.054 81.3443L104.666 74.8776L104.666 74.8766C104.704 74.7224 104.773 74.5777 104.869 74.4512C104.965 74.3247 105.086 74.2192 105.224 74.141L104.978 73.7058L105.224 74.141C105.362 74.0628 105.515 74.0136 105.673 73.9964C105.831 73.9793 105.99 73.9945 106.142 74.0412L106.155 74.0452L106.168 74.0485L112.548 75.6385C112.848 75.7134 113.107 75.9045 113.266 76.1698C113.426 76.4351 113.473 76.7529 113.398 77.0532C113.323 77.3535 113.132 77.6118 112.867 77.7712C112.602 77.9306 112.284 77.9781 111.983 77.9032L111.983 77.9032L109.007 77.1615L107.77 76.8535L108.467 77.9201C109.791 79.9473 111.663 81.5576 113.866 82.5641C116.068 83.5707 118.51 83.9322 120.91 83.6069C123.309 83.2815 125.567 82.2826 127.422 80.726C129.277 79.1693 130.652 77.1188 131.389 74.8121L131.389 74.812C131.483 74.517 131.69 74.2716 131.965 74.1296C132.102 74.0592 132.25 74.0164 132.403 74.0036C132.556 73.9907 132.709 74.0081 132.855 74.0547C133.002 74.1013 133.137 74.1762 133.254 74.2751L133.577 73.8931L133.254 74.2751C133.371 74.374 133.468 74.495 133.538 74.6312C133.608 74.7674 133.651 74.9161 133.664 75.0688C133.677 75.2216 133.659 75.3754 133.613 75.5214L133.613 75.5215C132.941 77.6285 131.816 79.5627 130.316 81.188C128.817 82.8134 126.979 84.0903 124.933 84.929C121.744 86.2352 118.206 86.415 114.902 85.4388C111.597 84.4626 108.725 82.3887 106.758 79.5596Z" fill="#EC5C2E" stroke="#EC5C2E"/>
<path d="M51.6405 145V133.8H56.4885C57.4912 133.8 58.3552 133.965 59.0805 134.296C59.8058 134.616 60.3658 135.08 60.7605 135.688C61.1552 136.296 61.3525 137.021 61.3525 137.864C61.3525 138.696 61.1552 139.416 60.7605 140.024C60.3658 140.632 59.8058 141.101 59.0805 141.432C58.3552 141.752 57.4912 141.912 56.4885 141.912H53.0805L54.2325 140.744V145H51.6405ZM54.2325 141.032L53.0805 139.8H56.3445C57.1445 139.8 57.7418 139.629 58.1365 139.288C58.5312 138.947 58.7285 138.472 58.7285 137.864C58.7285 137.245 58.5312 136.765 58.1365 136.424C57.7418 136.083 57.1445 135.912 56.3445 135.912H53.0805L54.2325 134.68V141.032ZM63.1114 145V136.392H65.4954V138.824L65.1594 138.12C65.4154 137.512 65.826 137.053 66.3914 136.744C66.9567 136.424 67.6447 136.264 68.4554 136.264V138.568C68.3487 138.557 68.2527 138.552 68.1674 138.552C68.082 138.541 67.9914 138.536 67.8954 138.536C67.2127 138.536 66.658 138.733 66.2314 139.128C65.8154 139.512 65.6074 140.115 65.6074 140.936V145H63.1114ZM74.073 145.128C73.1557 145.128 72.3397 144.936 71.625 144.552C70.921 144.168 70.361 143.645 69.945 142.984C69.5397 142.312 69.337 141.549 69.337 140.696C69.337 139.832 69.5397 139.069 69.945 138.408C70.361 137.736 70.921 137.213 71.625 136.84C72.3397 136.456 73.1557 136.264 74.073 136.264C74.9797 136.264 75.7903 136.456 76.505 136.84C77.2197 137.213 77.7797 137.731 78.185 138.392C78.5903 139.053 78.793 139.821 78.793 140.696C78.793 141.549 78.5903 142.312 78.185 142.984C77.7797 143.645 77.2197 144.168 76.505 144.552C75.7903 144.936 74.9797 145.128 74.073 145.128ZM74.073 143.08C74.489 143.08 74.8623 142.984 75.193 142.792C75.5237 142.6 75.785 142.328 75.977 141.976C76.169 141.613 76.265 141.187 76.265 140.696C76.265 140.195 76.169 139.768 75.977 139.416C75.785 139.064 75.5237 138.792 75.193 138.6C74.8623 138.408 74.489 138.312 74.073 138.312C73.657 138.312 73.2837 138.408 72.953 138.6C72.6223 138.792 72.3557 139.064 72.153 139.416C71.961 139.768 71.865 140.195 71.865 140.696C71.865 141.187 71.961 141.613 72.153 141.976C72.3557 142.328 72.6223 142.6 72.953 142.792C73.2837 142.984 73.657 143.08 74.073 143.08ZM79.9214 148.232C79.5374 148.232 79.1694 148.189 78.8174 148.104C78.4654 148.029 78.1667 147.912 77.9214 147.752L78.5934 145.944C78.8814 146.147 79.2334 146.248 79.6494 146.248C79.9587 146.248 80.204 146.141 80.3854 145.928C80.5774 145.725 80.6734 145.416 80.6734 145V136.392H83.1694V144.984C83.1694 145.976 82.8867 146.765 82.3214 147.352C81.756 147.939 80.956 148.232 79.9214 148.232ZM81.9214 135.192C81.4627 135.192 81.0894 135.059 80.8014 134.792C80.5134 134.525 80.3694 134.195 80.3694 133.8C80.3694 133.405 80.5134 133.075 80.8014 132.808C81.0894 132.541 81.4627 132.408 81.9214 132.408C82.38 132.408 82.7534 132.536 83.0414 132.792C83.3294 133.037 83.4734 133.357 83.4734 133.752C83.4734 134.168 83.3294 134.515 83.0414 134.792C82.764 135.059 82.3907 135.192 81.9214 135.192ZM89.8396 145.128C88.8583 145.128 87.9943 144.936 87.2476 144.552C86.5116 144.168 85.941 143.645 85.5356 142.984C85.1303 142.312 84.9276 141.549 84.9276 140.696C84.9276 139.832 85.125 139.069 85.5196 138.408C85.925 137.736 86.4743 137.213 87.1676 136.84C87.861 136.456 88.645 136.264 89.5196 136.264C90.3623 136.264 91.1196 136.445 91.7916 136.808C92.4743 137.16 93.013 137.672 93.4076 138.344C93.8023 139.005 93.9996 139.8 93.9996 140.728C93.9996 140.824 93.9943 140.936 93.9836 141.064C93.973 141.181 93.9623 141.293 93.9516 141.4H86.9596V139.944H92.6396L91.6796 140.376C91.6796 139.928 91.589 139.539 91.4076 139.208C91.2263 138.877 90.9756 138.621 90.6556 138.44C90.3356 138.248 89.9623 138.152 89.5356 138.152C89.109 138.152 88.7303 138.248 88.3996 138.44C88.0796 138.621 87.829 138.883 87.6476 139.224C87.4663 139.555 87.3756 139.949 87.3756 140.408V140.792C87.3756 141.261 87.477 141.677 87.6796 142.04C87.893 142.392 88.1863 142.664 88.5596 142.856C88.9436 143.037 89.3916 143.128 89.9036 143.128C90.3623 143.128 90.7623 143.059 91.1036 142.92C91.4556 142.781 91.7756 142.573 92.0636 142.296L93.3916 143.736C92.997 144.184 92.501 144.531 91.9036 144.776C91.3063 145.011 90.6183 145.128 89.8396 145.128ZM99.9214 145.128C98.9934 145.128 98.1667 144.941 97.4414 144.568C96.716 144.184 96.1454 143.656 95.7294 142.984C95.324 142.312 95.1214 141.549 95.1214 140.696C95.1214 139.832 95.324 139.069 95.7294 138.408C96.1454 137.736 96.716 137.213 97.4414 136.84C98.1667 136.456 98.9934 136.264 99.9214 136.264C100.828 136.264 101.617 136.456 102.289 136.84C102.961 137.213 103.457 137.752 103.777 138.456L101.841 139.496C101.617 139.091 101.335 138.792 100.993 138.6C100.663 138.408 100.3 138.312 99.9054 138.312C99.4787 138.312 99.0947 138.408 98.7534 138.6C98.412 138.792 98.14 139.064 97.9374 139.416C97.7454 139.768 97.6494 140.195 97.6494 140.696C97.6494 141.197 97.7454 141.624 97.9374 141.976C98.14 142.328 98.412 142.6 98.7534 142.792C99.0947 142.984 99.4787 143.08 99.9054 143.08C100.3 143.08 100.663 142.989 100.993 142.808C101.335 142.616 101.617 142.312 101.841 141.896L103.777 142.952C103.457 143.645 102.961 144.184 102.289 144.568C101.617 144.941 100.828 145.128 99.9214 145.128ZM108.959 145.128C107.946 145.128 107.157 144.872 106.591 144.36C106.026 143.837 105.743 143.064 105.743 142.04V134.488H108.239V142.008C108.239 142.371 108.335 142.653 108.527 142.856C108.719 143.048 108.981 143.144 109.311 143.144C109.706 143.144 110.042 143.037 110.319 142.824L110.991 144.584C110.735 144.765 110.426 144.904 110.063 145C109.711 145.085 109.343 145.128 108.959 145.128ZM104.415 138.504V136.584H110.383V138.504H104.415ZM119.62 145V135.912H116.036V133.8H125.796V135.912H122.212V145H119.62ZM126.927 145V136.392H129.311V138.824L128.975 138.12C129.231 137.512 129.642 137.053 130.207 136.744C130.772 136.424 131.46 136.264 132.271 136.264V138.568C132.164 138.557 132.068 138.552 131.983 138.552C131.898 138.541 131.807 138.536 131.711 138.536C131.028 138.536 130.474 138.733 130.047 139.128C129.631 139.512 129.423 140.115 129.423 140.936V145H126.927ZM138.573 145V143.32L138.413 142.952V139.944C138.413 139.411 138.247 138.995 137.917 138.696C137.597 138.397 137.101 138.248 136.429 138.248C135.97 138.248 135.517 138.323 135.069 138.472C134.631 138.611 134.258 138.803 133.949 139.048L133.053 137.304C133.522 136.973 134.087 136.717 134.749 136.536C135.41 136.355 136.082 136.264 136.765 136.264C138.077 136.264 139.095 136.573 139.821 137.192C140.546 137.811 140.909 138.776 140.909 140.088V145H138.573ZM135.949 145.128C135.277 145.128 134.701 145.016 134.221 144.792C133.741 144.557 133.373 144.243 133.117 143.848C132.861 143.453 132.733 143.011 132.733 142.52C132.733 142.008 132.855 141.56 133.101 141.176C133.357 140.792 133.757 140.493 134.301 140.28C134.845 140.056 135.554 139.944 136.429 139.944H138.717V141.4H136.701C136.114 141.4 135.709 141.496 135.485 141.688C135.271 141.88 135.165 142.12 135.165 142.408C135.165 142.728 135.287 142.984 135.533 143.176C135.789 143.357 136.135 143.448 136.573 143.448C136.989 143.448 137.362 143.352 137.693 143.16C138.023 142.957 138.263 142.664 138.413 142.28L138.797 143.432C138.615 143.987 138.285 144.408 137.805 144.696C137.325 144.984 136.706 145.128 135.949 145.128ZM147.49 145.128C146.562 145.128 145.735 144.941 145.01 144.568C144.285 144.184 143.714 143.656 143.298 142.984C142.893 142.312 142.69 141.549 142.69 140.696C142.69 139.832 142.893 139.069 143.298 138.408C143.714 137.736 144.285 137.213 145.01 136.84C145.735 136.456 146.562 136.264 147.49 136.264C148.397 136.264 149.186 136.456 149.858 136.84C150.53 137.213 151.026 137.752 151.346 138.456L149.41 139.496C149.186 139.091 148.903 138.792 148.562 138.6C148.231 138.408 147.869 138.312 147.474 138.312C147.047 138.312 146.663 138.408 146.322 138.6C145.981 138.792 145.709 139.064 145.506 139.416C145.314 139.768 145.218 140.195 145.218 140.696C145.218 141.197 145.314 141.624 145.506 141.976C145.709 142.328 145.981 142.6 146.322 142.792C146.663 142.984 147.047 143.08 147.474 143.08C147.869 143.08 148.231 142.989 148.562 142.808C148.903 142.616 149.186 142.312 149.41 141.896L151.346 142.952C151.026 143.645 150.53 144.184 149.858 144.568C149.186 144.941 148.397 145.128 147.49 145.128ZM154.9 143.24L154.964 140.2L158.98 136.392H161.956L158.1 140.312L156.804 141.368L154.9 143.24ZM152.836 145V133.128H155.332V145H152.836ZM159.252 145L156.34 141.384L157.908 139.448L162.276 145H159.252ZM163.499 145V136.392H165.995V145H163.499ZM164.747 135.192C164.288 135.192 163.915 135.059 163.627 134.792C163.339 134.525 163.195 134.195 163.195 133.8C163.195 133.405 163.339 133.075 163.627 132.808C163.915 132.541 164.288 132.408 164.747 132.408C165.206 132.408 165.579 132.536 165.867 132.792C166.155 133.037 166.299 133.357 166.299 133.752C166.299 134.168 166.155 134.515 165.867 134.792C165.59 135.059 165.216 135.192 164.747 135.192ZM173.643 136.264C174.326 136.264 174.934 136.403 175.467 136.68C176.011 136.947 176.438 137.363 176.747 137.928C177.057 138.483 177.211 139.197 177.211 140.072V145H174.715V140.456C174.715 139.763 174.561 139.251 174.251 138.92C173.953 138.589 173.526 138.424 172.971 138.424C172.577 138.424 172.219 138.509 171.899 138.68C171.59 138.84 171.345 139.091 171.163 139.432C170.993 139.773 170.907 140.211 170.907 140.744V145H168.411V136.392H170.795V138.776L170.347 138.056C170.657 137.48 171.099 137.037 171.675 136.728C172.251 136.419 172.907 136.264 173.643 136.264ZM183.684 148.232C182.874 148.232 182.09 148.131 181.332 147.928C180.586 147.736 179.962 147.443 179.46 147.048L180.452 145.256C180.815 145.555 181.274 145.789 181.828 145.96C182.394 146.141 182.948 146.232 183.492 146.232C184.378 146.232 185.018 146.035 185.412 145.64C185.818 145.245 186.02 144.659 186.02 143.88V142.584L186.18 140.424L186.148 138.248V136.392H188.516V143.56C188.516 145.16 188.1 146.339 187.268 147.096C186.436 147.853 185.242 148.232 183.684 148.232ZM183.3 144.584C182.5 144.584 181.775 144.413 181.124 144.072C180.484 143.72 179.967 143.235 179.572 142.616C179.188 141.987 178.996 141.256 178.996 140.424C178.996 139.581 179.188 138.851 179.572 138.232C179.967 137.603 180.484 137.117 181.124 136.776C181.775 136.435 182.5 136.264 183.3 136.264C184.026 136.264 184.666 136.413 185.22 136.712C185.775 137 186.207 137.453 186.516 138.072C186.826 138.68 186.98 139.464 186.98 140.424C186.98 141.373 186.826 142.157 186.516 142.776C186.207 143.384 185.775 143.837 185.22 144.136C184.666 144.435 184.026 144.584 183.3 144.584ZM183.796 142.536C184.234 142.536 184.623 142.451 184.964 142.28C185.306 142.099 185.572 141.848 185.764 141.528C185.956 141.208 186.052 140.84 186.052 140.424C186.052 139.997 185.956 139.629 185.764 139.32C185.572 139 185.306 138.755 184.964 138.584C184.623 138.403 184.234 138.312 183.796 138.312C183.359 138.312 182.97 138.403 182.628 138.584C182.287 138.755 182.015 139 181.812 139.32C181.62 139.629 181.524 139.997 181.524 140.424C181.524 140.84 181.62 141.208 181.812 141.528C182.015 141.848 182.287 142.099 182.628 142.28C182.97 142.451 183.359 142.536 183.796 142.536Z" fill="#252B42"/>
<path d="M16.8448 186V176.2H17.6988L22.1788 183.844H21.7308L26.1688 176.2H27.0228V186H26.0288V177.754H26.2668L22.1788 184.754H21.6888L17.5728 177.754H17.8388V186H16.8448ZM33.2019 186.07C32.4926 186.07 31.8533 185.911 31.2839 185.594C30.7239 185.267 30.2806 184.824 29.9539 184.264C29.6273 183.695 29.4639 183.046 29.4639 182.318C29.4639 181.581 29.6273 180.932 29.9539 180.372C30.2806 179.812 30.7239 179.373 31.2839 179.056C31.8439 178.739 32.4833 178.58 33.2019 178.58C33.9299 178.58 34.5739 178.739 35.1339 179.056C35.7033 179.373 36.1466 179.812 36.4639 180.372C36.7906 180.932 36.9539 181.581 36.9539 182.318C36.9539 183.046 36.7906 183.695 36.4639 184.264C36.1466 184.824 35.7033 185.267 35.1339 185.594C34.5646 185.911 33.9206 186.07 33.2019 186.07ZM33.2019 185.188C33.7339 185.188 34.2053 185.071 34.6159 184.838C35.0266 184.595 35.3486 184.259 35.5819 183.83C35.8246 183.391 35.9459 182.887 35.9459 182.318C35.9459 181.739 35.8246 181.235 35.5819 180.806C35.3486 180.377 35.0266 180.045 34.6159 179.812C34.2053 179.569 33.7386 179.448 33.2159 179.448C32.6933 179.448 32.2266 179.569 31.8159 179.812C31.4053 180.045 31.0786 180.377 30.8359 180.806C30.5933 181.235 30.4719 181.739 30.4719 182.318C30.4719 182.887 30.5933 183.391 30.8359 183.83C31.0786 184.259 31.4053 184.595 31.8159 184.838C32.2266 185.071 32.6886 185.188 33.2019 185.188ZM42.9353 178.58C43.5326 178.58 44.0553 178.697 44.5033 178.93C44.9606 179.154 45.3153 179.499 45.5673 179.966C45.8286 180.433 45.9593 181.021 45.9593 181.73V186H44.9653V181.828C44.9653 181.053 44.7693 180.47 44.3773 180.078C43.9946 179.677 43.4533 179.476 42.7533 179.476C42.2306 179.476 41.7733 179.583 41.3813 179.798C40.9986 180.003 40.6999 180.307 40.4853 180.708C40.2799 181.1 40.1773 181.576 40.1773 182.136V186H39.1833V178.65H40.1353V180.666L39.9813 180.288C40.2146 179.756 40.5879 179.341 41.1013 179.042C41.6146 178.734 42.2259 178.58 42.9353 178.58ZM48.8442 186V178.65H49.8382V186H48.8442ZM49.3482 177.026C49.1429 177.026 48.9702 176.956 48.8302 176.816C48.6902 176.676 48.6202 176.508 48.6202 176.312C48.6202 176.116 48.6902 175.953 48.8302 175.822C48.9702 175.682 49.1429 175.612 49.3482 175.612C49.5535 175.612 49.7262 175.677 49.8662 175.808C50.0062 175.939 50.0762 176.102 50.0762 176.298C50.0762 176.503 50.0062 176.676 49.8662 176.816C49.7355 176.956 49.5629 177.026 49.3482 177.026ZM55.128 186.07C54.4373 186.07 53.9053 185.883 53.532 185.51C53.1586 185.137 52.972 184.609 52.972 183.928V177.026H53.966V183.872C53.966 184.301 54.0733 184.633 54.288 184.866C54.512 185.099 54.8293 185.216 55.24 185.216C55.6786 185.216 56.0426 185.09 56.332 184.838L56.682 185.552C56.486 185.729 56.248 185.86 55.968 185.944C55.6973 186.028 55.4173 186.07 55.128 186.07ZM51.656 179.476V178.65H56.206V179.476H51.656ZM61.4277 186.07C60.7184 186.07 60.079 185.911 59.5097 185.594C58.9497 185.267 58.5064 184.824 58.1797 184.264C57.853 183.695 57.6897 183.046 57.6897 182.318C57.6897 181.581 57.853 180.932 58.1797 180.372C58.5064 179.812 58.9497 179.373 59.5097 179.056C60.0697 178.739 60.709 178.58 61.4277 178.58C62.1557 178.58 62.7997 178.739 63.3597 179.056C63.929 179.373 64.3724 179.812 64.6897 180.372C65.0164 180.932 65.1797 181.581 65.1797 182.318C65.1797 183.046 65.0164 183.695 64.6897 184.264C64.3724 184.824 63.929 185.267 63.3597 185.594C62.7904 185.911 62.1464 186.07 61.4277 186.07ZM61.4277 185.188C61.9597 185.188 62.431 185.071 62.8417 184.838C63.2524 184.595 63.5744 184.259 63.8077 183.83C64.0504 183.391 64.1717 182.887 64.1717 182.318C64.1717 181.739 64.0504 181.235 63.8077 180.806C63.5744 180.377 63.2524 180.045 62.8417 179.812C62.431 179.569 61.9644 179.448 61.4417 179.448C60.919 179.448 60.4524 179.569 60.0417 179.812C59.631 180.045 59.3044 180.377 59.0617 180.806C58.819 181.235 58.6977 181.739 58.6977 182.318C58.6977 182.887 58.819 183.391 59.0617 183.83C59.3044 184.259 59.631 184.595 60.0417 184.838C60.4524 185.071 60.9144 185.188 61.4277 185.188ZM67.409 186V178.65H68.361V180.652L68.263 180.302C68.4684 179.742 68.8137 179.317 69.299 179.028C69.7844 178.729 70.3864 178.58 71.105 178.58V179.546C71.0677 179.546 71.0304 179.546 70.993 179.546C70.9557 179.537 70.9184 179.532 70.881 179.532C70.1064 179.532 69.4997 179.77 69.061 180.246C68.6224 180.713 68.403 181.38 68.403 182.248V186H67.409ZM80.8862 186.07C80.2516 186.07 79.6776 185.925 79.1642 185.636C78.6509 185.337 78.2402 184.913 77.9322 184.362C77.6336 183.802 77.4842 183.121 77.4842 182.318C77.4842 181.515 77.6336 180.839 77.9322 180.288C78.2309 179.728 78.6369 179.303 79.1502 179.014C79.6636 178.725 80.2422 178.58 80.8862 178.58C81.5862 178.58 82.2116 178.739 82.7622 179.056C83.3222 179.364 83.7609 179.803 84.0782 180.372C84.3956 180.932 84.5542 181.581 84.5542 182.318C84.5542 183.065 84.3956 183.718 84.0782 184.278C83.7609 184.838 83.3222 185.277 82.7622 185.594C82.2116 185.911 81.5862 186.07 80.8862 186.07ZM77.0922 188.716V178.65H78.0442V180.862L77.9462 182.332L78.0862 183.816V188.716H77.0922ZM80.8162 185.188C81.3389 185.188 81.8056 185.071 82.2162 184.838C82.6269 184.595 82.9536 184.259 83.1962 183.83C83.4389 183.391 83.5602 182.887 83.5602 182.318C83.5602 181.749 83.4389 181.249 83.1962 180.82C82.9536 180.391 82.6269 180.055 82.2162 179.812C81.8056 179.569 81.3389 179.448 80.8162 179.448C80.2936 179.448 79.8222 179.569 79.4022 179.812C78.9916 180.055 78.6649 180.391 78.4222 180.82C78.1889 181.249 78.0722 181.749 78.0722 182.318C78.0722 182.887 78.1889 183.391 78.4222 183.83C78.6649 184.259 78.9916 184.595 79.4022 184.838C79.8222 185.071 80.2936 185.188 80.8162 185.188ZM86.7805 186V178.65H87.7325V180.652L87.6345 180.302C87.8399 179.742 88.1852 179.317 88.6705 179.028C89.1559 178.729 89.7579 178.58 90.4765 178.58V179.546C90.4392 179.546 90.4019 179.546 90.3645 179.546C90.3272 179.537 90.2899 179.532 90.2525 179.532C89.4779 179.532 88.8712 179.77 88.4325 180.246C87.9939 180.713 87.7745 181.38 87.7745 182.248V186H86.7805ZM95.4179 186.07C94.7086 186.07 94.0693 185.911 93.4999 185.594C92.9399 185.267 92.4966 184.824 92.1699 184.264C91.8433 183.695 91.6799 183.046 91.6799 182.318C91.6799 181.581 91.8433 180.932 92.1699 180.372C92.4966 179.812 92.9399 179.373 93.4999 179.056C94.0599 178.739 94.6993 178.58 95.4179 178.58C96.1459 178.58 96.7899 178.739 97.3499 179.056C97.9193 179.373 98.3626 179.812 98.6799 180.372C99.0066 180.932 99.1699 181.581 99.1699 182.318C99.1699 183.046 99.0066 183.695 98.6799 184.264C98.3626 184.824 97.9193 185.267 97.3499 185.594C96.7806 185.911 96.1366 186.07 95.4179 186.07ZM95.4179 185.188C95.9499 185.188 96.4213 185.071 96.8319 184.838C97.2426 184.595 97.5646 184.259 97.7979 183.83C98.0406 183.391 98.1619 182.887 98.1619 182.318C98.1619 181.739 98.0406 181.235 97.7979 180.806C97.5646 180.377 97.2426 180.045 96.8319 179.812C96.4213 179.569 95.9546 179.448 95.4319 179.448C94.9093 179.448 94.4426 179.569 94.0319 179.812C93.6213 180.045 93.2946 180.377 93.0519 180.806C92.8093 181.235 92.6879 181.739 92.6879 182.318C92.6879 182.887 92.8093 183.391 93.0519 183.83C93.2946 184.259 93.6213 184.595 94.0319 184.838C94.4426 185.071 94.9046 185.188 95.4179 185.188ZM100.307 188.786C100.009 188.786 99.7239 188.744 99.4533 188.66C99.1733 188.585 98.9399 188.469 98.7533 188.31L99.1033 187.554C99.4019 187.806 99.7846 187.932 100.251 187.932C100.643 187.932 100.942 187.815 101.147 187.582C101.362 187.349 101.469 187.003 101.469 186.546V178.65H102.463V186.546C102.463 187.227 102.277 187.769 101.903 188.17C101.539 188.581 101.007 188.786 100.307 188.786ZM101.973 177.026C101.768 177.026 101.595 176.956 101.455 176.816C101.315 176.676 101.245 176.508 101.245 176.312C101.245 176.116 101.315 175.953 101.455 175.822C101.595 175.682 101.768 175.612 101.973 175.612C102.179 175.612 102.351 175.677 102.491 175.808C102.631 175.939 102.701 176.102 102.701 176.298C102.701 176.503 102.631 176.676 102.491 176.816C102.361 176.956 102.188 177.026 101.973 177.026ZM108.563 186.07C107.798 186.07 107.126 185.911 106.547 185.594C105.968 185.267 105.516 184.824 105.189 184.264C104.862 183.695 104.699 183.046 104.699 182.318C104.699 181.59 104.853 180.946 105.161 180.386C105.478 179.826 105.908 179.387 106.449 179.07C107 178.743 107.616 178.58 108.297 178.58C108.988 178.58 109.599 178.739 110.131 179.056C110.672 179.364 111.097 179.803 111.405 180.372C111.713 180.932 111.867 181.581 111.867 182.318C111.867 182.365 111.862 182.416 111.853 182.472C111.853 182.519 111.853 182.57 111.853 182.626H105.455V181.884H111.321L110.929 182.178C110.929 181.646 110.812 181.175 110.579 180.764C110.355 180.344 110.047 180.017 109.655 179.784C109.263 179.551 108.81 179.434 108.297 179.434C107.793 179.434 107.34 179.551 106.939 179.784C106.538 180.017 106.225 180.344 106.001 180.764C105.777 181.184 105.665 181.665 105.665 182.206V182.36C105.665 182.92 105.786 183.415 106.029 183.844C106.281 184.264 106.626 184.595 107.065 184.838C107.513 185.071 108.022 185.188 108.591 185.188C109.039 185.188 109.454 185.109 109.837 184.95C110.229 184.791 110.565 184.549 110.845 184.222L111.405 184.866C111.078 185.258 110.668 185.557 110.173 185.762C109.688 185.967 109.151 186.07 108.563 186.07ZM117.142 186.07C116.414 186.07 115.761 185.911 115.182 185.594C114.613 185.267 114.165 184.824 113.838 184.264C113.512 183.695 113.348 183.046 113.348 182.318C113.348 181.581 113.512 180.932 113.838 180.372C114.165 179.812 114.613 179.373 115.182 179.056C115.761 178.739 116.414 178.58 117.142 178.58C117.768 178.58 118.332 178.701 118.836 178.944C119.34 179.187 119.737 179.551 120.026 180.036L119.284 180.54C119.032 180.167 118.72 179.891 118.346 179.714C117.973 179.537 117.567 179.448 117.128 179.448C116.606 179.448 116.134 179.569 115.714 179.812C115.294 180.045 114.963 180.377 114.72 180.806C114.478 181.235 114.356 181.739 114.356 182.318C114.356 182.897 114.478 183.401 114.72 183.83C114.963 184.259 115.294 184.595 115.714 184.838C116.134 185.071 116.606 185.188 117.128 185.188C117.567 185.188 117.973 185.099 118.346 184.922C118.72 184.745 119.032 184.474 119.284 184.11L120.026 184.614C119.737 185.09 119.34 185.454 118.836 185.706C118.332 185.949 117.768 186.07 117.142 186.07ZM124.585 186.07C123.894 186.07 123.362 185.883 122.989 185.51C122.616 185.137 122.429 184.609 122.429 183.928V177.026H123.423V183.872C123.423 184.301 123.53 184.633 123.745 184.866C123.969 185.099 124.286 185.216 124.697 185.216C125.136 185.216 125.5 185.09 125.789 184.838L126.139 185.552C125.943 185.729 125.705 185.86 125.425 185.944C125.154 186.028 124.874 186.07 124.585 186.07ZM121.113 179.476V178.65H125.663V179.476H121.113ZM135.807 186.07C135.172 186.07 134.598 185.925 134.085 185.636C133.571 185.337 133.161 184.913 132.853 184.362C132.554 183.802 132.405 183.121 132.405 182.318C132.405 181.515 132.554 180.839 132.853 180.288C133.151 179.728 133.557 179.303 134.071 179.014C134.584 178.725 135.163 178.58 135.807 178.58C136.507 178.58 137.132 178.739 137.683 179.056C138.243 179.364 138.681 179.803 138.999 180.372C139.316 180.932 139.475 181.581 139.475 182.318C139.475 183.065 139.316 183.718 138.999 184.278C138.681 184.838 138.243 185.277 137.683 185.594C137.132 185.911 136.507 186.07 135.807 186.07ZM132.013 188.716V178.65H132.965V180.862L132.867 182.332L133.007 183.816V188.716H132.013ZM135.737 185.188C136.259 185.188 136.726 185.071 137.137 184.838C137.547 184.595 137.874 184.259 138.117 183.83C138.359 183.391 138.481 182.887 138.481 182.318C138.481 181.749 138.359 181.249 138.117 180.82C137.874 180.391 137.547 180.055 137.137 179.812C136.726 179.569 136.259 179.448 135.737 179.448C135.214 179.448 134.743 179.569 134.323 179.812C133.912 180.055 133.585 180.391 133.343 180.82C133.109 181.249 132.993 181.749 132.993 182.318C132.993 182.887 133.109 183.391 133.343 183.83C133.585 184.259 133.912 184.595 134.323 184.838C134.743 185.071 135.214 185.188 135.737 185.188ZM141.701 186V178.65H142.653V180.652L142.555 180.302C142.76 179.742 143.106 179.317 143.591 179.028C144.076 178.729 144.678 178.58 145.397 178.58V179.546C145.36 179.546 145.322 179.546 145.285 179.546C145.248 179.537 145.21 179.532 145.173 179.532C144.398 179.532 143.792 179.77 143.353 180.246C142.914 180.713 142.695 181.38 142.695 182.248V186H141.701ZM150.338 186.07C149.629 186.07 148.99 185.911 148.42 185.594C147.86 185.267 147.417 184.824 147.09 184.264C146.764 183.695 146.6 183.046 146.6 182.318C146.6 181.581 146.764 180.932 147.09 180.372C147.417 179.812 147.86 179.373 148.42 179.056C148.98 178.739 149.62 178.58 150.338 178.58C151.066 178.58 151.71 178.739 152.27 179.056C152.84 179.373 153.283 179.812 153.6 180.372C153.927 180.932 154.09 181.581 154.09 182.318C154.09 183.046 153.927 183.695 153.6 184.264C153.283 184.824 152.84 185.267 152.27 185.594C151.701 185.911 151.057 186.07 150.338 186.07ZM150.338 185.188C150.87 185.188 151.342 185.071 151.752 184.838C152.163 184.595 152.485 184.259 152.718 183.83C152.961 183.391 153.082 182.887 153.082 182.318C153.082 181.739 152.961 181.235 152.718 180.806C152.485 180.377 152.163 180.045 151.752 179.812C151.342 179.569 150.875 179.448 150.352 179.448C149.83 179.448 149.363 179.569 148.952 179.812C148.542 180.045 148.215 180.377 147.972 180.806C147.73 181.235 147.608 181.739 147.608 182.318C147.608 182.887 147.73 183.391 147.972 183.83C148.215 184.259 148.542 184.595 148.952 184.838C149.363 185.071 149.825 185.188 150.338 185.188ZM159.456 188.786C158.784 188.786 158.14 188.688 157.524 188.492C156.908 188.296 156.408 188.016 156.026 187.652L156.53 186.896C156.875 187.204 157.3 187.447 157.804 187.624C158.317 187.811 158.858 187.904 159.428 187.904C160.361 187.904 161.047 187.685 161.486 187.246C161.924 186.817 162.144 186.145 162.144 185.23V183.396L162.284 182.136L162.186 180.876V178.65H163.138V185.104C163.138 186.373 162.825 187.302 162.2 187.89C161.584 188.487 160.669 188.786 159.456 188.786ZM159.274 185.72C158.574 185.72 157.944 185.571 157.384 185.272C156.824 184.964 156.38 184.539 156.054 183.998C155.736 183.457 155.578 182.836 155.578 182.136C155.578 181.436 155.736 180.82 156.054 180.288C156.38 179.747 156.824 179.327 157.384 179.028C157.944 178.729 158.574 178.58 159.274 178.58C159.927 178.58 160.515 178.715 161.038 178.986C161.56 179.257 161.976 179.658 162.284 180.19C162.592 180.722 162.746 181.371 162.746 182.136C162.746 182.901 162.592 183.55 162.284 184.082C161.976 184.614 161.56 185.02 161.038 185.3C160.515 185.58 159.927 185.72 159.274 185.72ZM159.372 184.838C159.913 184.838 160.394 184.726 160.814 184.502C161.234 184.269 161.565 183.951 161.808 183.55C162.05 183.139 162.172 182.668 162.172 182.136C162.172 181.604 162.05 181.137 161.808 180.736C161.565 180.335 161.234 180.022 160.814 179.798C160.394 179.565 159.913 179.448 159.372 179.448C158.84 179.448 158.359 179.565 157.93 179.798C157.51 180.022 157.178 180.335 156.936 180.736C156.702 181.137 156.586 181.604 156.586 182.136C156.586 182.668 156.702 183.139 156.936 183.55C157.178 183.951 157.51 184.269 157.93 184.502C158.359 184.726 158.84 184.838 159.372 184.838ZM166.104 186V178.65H167.056V180.652L166.958 180.302C167.163 179.742 167.508 179.317 167.994 179.028C168.479 178.729 169.081 178.58 169.8 178.58V179.546C169.762 179.546 169.725 179.546 169.688 179.546C169.65 179.537 169.613 179.532 169.576 179.532C168.801 179.532 168.194 179.77 167.756 180.246C167.317 180.713 167.098 181.38 167.098 182.248V186H166.104ZM174.867 186.07C174.102 186.07 173.43 185.911 172.851 185.594C172.272 185.267 171.82 184.824 171.493 184.264C171.166 183.695 171.003 183.046 171.003 182.318C171.003 181.59 171.157 180.946 171.465 180.386C171.782 179.826 172.212 179.387 172.753 179.07C173.304 178.743 173.92 178.58 174.601 178.58C175.292 178.58 175.903 178.739 176.435 179.056C176.976 179.364 177.401 179.803 177.709 180.372C178.017 180.932 178.171 181.581 178.171 182.318C178.171 182.365 178.166 182.416 178.157 182.472C178.157 182.519 178.157 182.57 178.157 182.626H171.759V181.884H177.625L177.233 182.178C177.233 181.646 177.116 181.175 176.883 180.764C176.659 180.344 176.351 180.017 175.959 179.784C175.567 179.551 175.114 179.434 174.601 179.434C174.097 179.434 173.644 179.551 173.243 179.784C172.842 180.017 172.529 180.344 172.305 180.764C172.081 181.184 171.969 181.665 171.969 182.206V182.36C171.969 182.92 172.09 183.415 172.333 183.844C172.585 184.264 172.93 184.595 173.369 184.838C173.817 185.071 174.326 185.188 174.895 185.188C175.343 185.188 175.758 185.109 176.141 184.95C176.533 184.791 176.869 184.549 177.149 184.222L177.709 184.866C177.382 185.258 176.972 185.557 176.477 185.762C175.992 185.967 175.455 186.07 174.867 186.07ZM182.368 186.07C181.762 186.07 181.188 185.986 180.646 185.818C180.105 185.641 179.68 185.421 179.372 185.16L179.82 184.376C180.119 184.6 180.502 184.796 180.968 184.964C181.435 185.123 181.925 185.202 182.438 185.202C183.138 185.202 183.642 185.095 183.95 184.88C184.258 184.656 184.412 184.362 184.412 183.998C184.412 183.727 184.324 183.517 184.146 183.368C183.978 183.209 183.754 183.093 183.474 183.018C183.194 182.934 182.882 182.864 182.536 182.808C182.191 182.752 181.846 182.687 181.5 182.612C181.164 182.537 180.856 182.43 180.576 182.29C180.296 182.141 180.068 181.94 179.89 181.688C179.722 181.436 179.638 181.1 179.638 180.68C179.638 180.279 179.75 179.919 179.974 179.602C180.198 179.285 180.525 179.037 180.954 178.86C181.393 178.673 181.925 178.58 182.55 178.58C183.026 178.58 183.502 178.645 183.978 178.776C184.454 178.897 184.846 179.061 185.154 179.266L184.72 180.064C184.394 179.84 184.044 179.681 183.67 179.588C183.297 179.485 182.924 179.434 182.55 179.434C181.888 179.434 181.398 179.551 181.08 179.784C180.772 180.008 180.618 180.297 180.618 180.652C180.618 180.932 180.702 181.151 180.87 181.31C181.048 181.469 181.276 181.595 181.556 181.688C181.846 181.772 182.158 181.842 182.494 181.898C182.84 181.954 183.18 182.024 183.516 182.108C183.862 182.183 184.174 182.29 184.454 182.43C184.744 182.561 184.972 182.752 185.14 183.004C185.318 183.247 185.406 183.569 185.406 183.97C185.406 184.399 185.285 184.773 185.042 185.09C184.809 185.398 184.464 185.641 184.006 185.818C183.558 185.986 183.012 186.07 182.368 186.07ZM189.404 186.07C188.797 186.07 188.223 185.986 187.682 185.818C187.141 185.641 186.716 185.421 186.408 185.16L186.856 184.376C187.155 184.6 187.537 184.796 188.004 184.964C188.471 185.123 188.961 185.202 189.474 185.202C190.174 185.202 190.678 185.095 190.986 184.88C191.294 184.656 191.448 184.362 191.448 183.998C191.448 183.727 191.359 183.517 191.182 183.368C191.014 183.209 190.79 183.093 190.51 183.018C190.23 182.934 189.917 182.864 189.572 182.808C189.227 182.752 188.881 182.687 188.536 182.612C188.2 182.537 187.892 182.43 187.612 182.29C187.332 182.141 187.103 181.94 186.926 181.688C186.758 181.436 186.674 181.1 186.674 180.68C186.674 180.279 186.786 179.919 187.01 179.602C187.234 179.285 187.561 179.037 187.99 178.86C188.429 178.673 188.961 178.58 189.586 178.58C190.062 178.58 190.538 178.645 191.014 178.776C191.49 178.897 191.882 179.061 192.19 179.266L191.756 180.064C191.429 179.84 191.079 179.681 190.706 179.588C190.333 179.485 189.959 179.434 189.586 179.434C188.923 179.434 188.433 179.551 188.116 179.784C187.808 180.008 187.654 180.297 187.654 180.652C187.654 180.932 187.738 181.151 187.906 181.31C188.083 181.469 188.312 181.595 188.592 181.688C188.881 181.772 189.194 181.842 189.53 181.898C189.875 181.954 190.216 182.024 190.552 182.108C190.897 182.183 191.21 182.29 191.49 182.43C191.779 182.561 192.008 182.752 192.176 183.004C192.353 183.247 192.442 183.569 192.442 183.97C192.442 184.399 192.321 184.773 192.078 185.09C191.845 185.398 191.499 185.641 191.042 185.818C190.594 185.986 190.048 186.07 189.404 186.07ZM202.936 186V184.376L202.894 184.11V181.394C202.894 180.769 202.717 180.288 202.362 179.952C202.017 179.616 201.499 179.448 200.808 179.448C200.332 179.448 199.879 179.527 199.45 179.686C199.021 179.845 198.657 180.055 198.358 180.316L197.91 179.574C198.283 179.257 198.731 179.014 199.254 178.846C199.777 178.669 200.327 178.58 200.906 178.58C201.858 178.58 202.591 178.818 203.104 179.294C203.627 179.761 203.888 180.475 203.888 181.436V186H202.936ZM200.402 186.07C199.851 186.07 199.371 185.981 198.96 185.804C198.559 185.617 198.251 185.365 198.036 185.048C197.821 184.721 197.714 184.348 197.714 183.928C197.714 183.545 197.803 183.2 197.98 182.892C198.167 182.575 198.465 182.323 198.876 182.136C199.296 181.94 199.856 181.842 200.556 181.842H203.09V182.584H200.584C199.875 182.584 199.38 182.71 199.1 182.962C198.829 183.214 198.694 183.527 198.694 183.9C198.694 184.32 198.857 184.656 199.184 184.908C199.511 185.16 199.968 185.286 200.556 185.286C201.116 185.286 201.597 185.16 201.998 184.908C202.409 184.647 202.707 184.273 202.894 183.788L203.118 184.474C202.931 184.959 202.605 185.347 202.138 185.636C201.681 185.925 201.102 186.07 200.402 186.07ZM210.54 178.58C211.137 178.58 211.66 178.697 212.108 178.93C212.565 179.154 212.92 179.499 213.172 179.966C213.433 180.433 213.564 181.021 213.564 181.73V186H212.57V181.828C212.57 181.053 212.374 180.47 211.982 180.078C211.599 179.677 211.058 179.476 210.358 179.476C209.835 179.476 209.378 179.583 208.986 179.798C208.603 180.003 208.305 180.307 208.09 180.708C207.885 181.1 207.782 181.576 207.782 182.136V186H206.788V178.65H207.74V180.666L207.586 180.288C207.819 179.756 208.193 179.341 208.706 179.042C209.219 178.734 209.831 178.58 210.54 178.58ZM219.375 186.07C218.675 186.07 218.045 185.911 217.485 185.594C216.934 185.277 216.5 184.838 216.183 184.278C215.866 183.709 215.707 183.055 215.707 182.318C215.707 181.571 215.866 180.918 216.183 180.358C216.5 179.798 216.934 179.364 217.485 179.056C218.045 178.739 218.675 178.58 219.375 178.58C220.019 178.58 220.593 178.725 221.097 179.014C221.61 179.303 222.016 179.728 222.315 180.288C222.623 180.839 222.777 181.515 222.777 182.318C222.777 183.111 222.628 183.788 222.329 184.348C222.03 184.908 221.624 185.337 221.111 185.636C220.607 185.925 220.028 186.07 219.375 186.07ZM219.445 185.188C219.968 185.188 220.434 185.071 220.845 184.838C221.265 184.595 221.592 184.259 221.825 183.83C222.068 183.391 222.189 182.887 222.189 182.318C222.189 181.739 222.068 181.235 221.825 180.806C221.592 180.377 221.265 180.045 220.845 179.812C220.434 179.569 219.968 179.448 219.445 179.448C218.932 179.448 218.47 179.569 218.059 179.812C217.648 180.045 217.322 180.377 217.079 180.806C216.836 181.235 216.715 181.739 216.715 182.318C216.715 182.887 216.836 183.391 217.079 183.83C217.322 184.259 217.648 184.595 218.059 184.838C218.47 185.071 218.932 185.188 219.445 185.188ZM222.217 186V183.788L222.315 182.304L222.175 180.82V175.612H223.169V186H222.217ZM89.7848 198.58C90.3822 198.58 90.9002 198.697 91.3388 198.93C91.7868 199.154 92.1322 199.499 92.3748 199.966C92.6268 200.433 92.7528 201.021 92.7528 201.73V206H91.7588V201.828C91.7588 201.053 91.5722 200.47 91.1988 200.078C90.8348 199.677 90.3168 199.476 89.6448 199.476C89.1408 199.476 88.7022 199.583 88.3288 199.798C87.9648 200.003 87.6802 200.307 87.4748 200.708C87.2788 201.1 87.1808 201.576 87.1808 202.136V206H86.1868V201.828C86.1868 201.053 86.0002 200.47 85.6268 200.078C85.2535 199.677 84.7308 199.476 84.0588 199.476C83.5642 199.476 83.1302 199.583 82.7568 199.798C82.3835 200.003 82.0942 200.307 81.8888 200.708C81.6928 201.1 81.5948 201.576 81.5948 202.136V206H80.6008V198.65H81.5528V200.638L81.3988 200.288C81.6228 199.756 81.9822 199.341 82.4768 199.042C82.9808 198.734 83.5735 198.58 84.2548 198.58C84.9735 198.58 85.5848 198.762 86.0888 199.126C86.5928 199.481 86.9195 200.017 87.0688 200.736L86.6768 200.582C86.8915 199.985 87.2695 199.504 87.8108 199.14C88.3615 198.767 89.0195 198.58 89.7848 198.58ZM95.6485 206V198.65H96.6425V206H95.6485ZM96.1525 197.026C95.9472 197.026 95.7745 196.956 95.6345 196.816C95.4945 196.676 95.4245 196.508 95.4245 196.312C95.4245 196.116 95.4945 195.953 95.6345 195.822C95.7745 195.682 95.9472 195.612 96.1525 195.612C96.3578 195.612 96.5305 195.677 96.6705 195.808C96.8105 195.939 96.8805 196.102 96.8805 196.298C96.8805 196.503 96.8105 196.676 96.6705 196.816C96.5398 196.956 96.3672 197.026 96.1525 197.026ZM99.6083 206V195.612H100.602V206H99.6083ZM106.69 206.07C105.925 206.07 105.253 205.911 104.674 205.594C104.095 205.267 103.643 204.824 103.316 204.264C102.989 203.695 102.826 203.046 102.826 202.318C102.826 201.59 102.98 200.946 103.288 200.386C103.605 199.826 104.035 199.387 104.576 199.07C105.127 198.743 105.743 198.58 106.424 198.58C107.115 198.58 107.726 198.739 108.258 199.056C108.799 199.364 109.224 199.803 109.532 200.372C109.84 200.932 109.994 201.581 109.994 202.318C109.994 202.365 109.989 202.416 109.98 202.472C109.98 202.519 109.98 202.57 109.98 202.626H103.582V201.884H109.448L109.056 202.178C109.056 201.646 108.939 201.175 108.706 200.764C108.482 200.344 108.174 200.017 107.782 199.784C107.39 199.551 106.937 199.434 106.424 199.434C105.92 199.434 105.467 199.551 105.066 199.784C104.665 200.017 104.352 200.344 104.128 200.764C103.904 201.184 103.792 201.665 103.792 202.206V202.36C103.792 202.92 103.913 203.415 104.156 203.844C104.408 204.264 104.753 204.595 105.192 204.838C105.64 205.071 106.149 205.188 106.718 205.188C107.166 205.188 107.581 205.109 107.964 204.95C108.356 204.791 108.692 204.549 108.972 204.222L109.532 204.866C109.205 205.258 108.795 205.557 108.3 205.762C107.815 205.967 107.278 206.07 106.69 206.07ZM114.191 206.07C113.585 206.07 113.011 205.986 112.469 205.818C111.928 205.641 111.503 205.421 111.195 205.16L111.643 204.376C111.942 204.6 112.325 204.796 112.791 204.964C113.258 205.123 113.748 205.202 114.261 205.202C114.961 205.202 115.465 205.095 115.773 204.88C116.081 204.656 116.235 204.362 116.235 203.998C116.235 203.727 116.147 203.517 115.969 203.368C115.801 203.209 115.577 203.093 115.297 203.018C115.017 202.934 114.705 202.864 114.359 202.808C114.014 202.752 113.669 202.687 113.323 202.612C112.987 202.537 112.679 202.43 112.399 202.29C112.119 202.141 111.891 201.94 111.713 201.688C111.545 201.436 111.461 201.1 111.461 200.68C111.461 200.279 111.573 199.919 111.797 199.602C112.021 199.285 112.348 199.037 112.777 198.86C113.216 198.673 113.748 198.58 114.373 198.58C114.849 198.58 115.325 198.645 115.801 198.776C116.277 198.897 116.669 199.061 116.977 199.266L116.543 200.064C116.217 199.84 115.867 199.681 115.493 199.588C115.12 199.485 114.747 199.434 114.373 199.434C113.711 199.434 113.221 199.551 112.903 199.784C112.595 200.008 112.441 200.297 112.441 200.652C112.441 200.932 112.525 201.151 112.693 201.31C112.871 201.469 113.099 201.595 113.379 201.688C113.669 201.772 113.981 201.842 114.317 201.898C114.663 201.954 115.003 202.024 115.339 202.108C115.685 202.183 115.997 202.29 116.277 202.43C116.567 202.561 116.795 202.752 116.963 203.004C117.141 203.247 117.229 203.569 117.229 203.97C117.229 204.399 117.108 204.773 116.865 205.09C116.632 205.398 116.287 205.641 115.829 205.818C115.381 205.986 114.835 206.07 114.191 206.07ZM121.577 206.07C120.887 206.07 120.355 205.883 119.981 205.51C119.608 205.137 119.421 204.609 119.421 203.928V197.026H120.415V203.872C120.415 204.301 120.523 204.633 120.737 204.866C120.961 205.099 121.279 205.216 121.689 205.216C122.128 205.216 122.492 205.09 122.781 204.838L123.131 205.552C122.935 205.729 122.697 205.86 122.417 205.944C122.147 206.028 121.867 206.07 121.577 206.07ZM118.105 199.476V198.65H122.655V199.476H118.105ZM127.877 206.07C127.168 206.07 126.528 205.911 125.959 205.594C125.399 205.267 124.956 204.824 124.629 204.264C124.302 203.695 124.139 203.046 124.139 202.318C124.139 201.581 124.302 200.932 124.629 200.372C124.956 199.812 125.399 199.373 125.959 199.056C126.519 198.739 127.158 198.58 127.877 198.58C128.605 198.58 129.249 198.739 129.809 199.056C130.378 199.373 130.822 199.812 131.139 200.372C131.466 200.932 131.629 201.581 131.629 202.318C131.629 203.046 131.466 203.695 131.139 204.264C130.822 204.824 130.378 205.267 129.809 205.594C129.24 205.911 128.596 206.07 127.877 206.07ZM127.877 205.188C128.409 205.188 128.88 205.071 129.291 204.838C129.702 204.595 130.024 204.259 130.257 203.83C130.5 203.391 130.621 202.887 130.621 202.318C130.621 201.739 130.5 201.235 130.257 200.806C130.024 200.377 129.702 200.045 129.291 199.812C128.88 199.569 128.414 199.448 127.891 199.448C127.368 199.448 126.902 199.569 126.491 199.812C126.08 200.045 125.754 200.377 125.511 200.806C125.268 201.235 125.147 201.739 125.147 202.318C125.147 202.887 125.268 203.391 125.511 203.83C125.754 204.259 126.08 204.595 126.491 204.838C126.902 205.071 127.364 205.188 127.877 205.188ZM137.61 198.58C138.208 198.58 138.73 198.697 139.178 198.93C139.636 199.154 139.99 199.499 140.242 199.966C140.504 200.433 140.634 201.021 140.634 201.73V206H139.64V201.828C139.64 201.053 139.444 200.47 139.052 200.078C138.67 199.677 138.128 199.476 137.428 199.476C136.906 199.476 136.448 199.583 136.056 199.798C135.674 200.003 135.375 200.307 135.16 200.708C134.955 201.1 134.852 201.576 134.852 202.136V206H133.858V198.65H134.81V200.666L134.656 200.288C134.89 199.756 135.263 199.341 135.776 199.042C136.29 198.734 136.901 198.58 137.61 198.58ZM146.641 206.07C145.876 206.07 145.204 205.911 144.625 205.594C144.047 205.267 143.594 204.824 143.267 204.264C142.941 203.695 142.777 203.046 142.777 202.318C142.777 201.59 142.931 200.946 143.239 200.386C143.557 199.826 143.986 199.387 144.527 199.07C145.078 198.743 145.694 198.58 146.375 198.58C147.066 198.58 147.677 198.739 148.209 199.056C148.751 199.364 149.175 199.803 149.483 200.372C149.791 200.932 149.945 201.581 149.945 202.318C149.945 202.365 149.941 202.416 149.931 202.472C149.931 202.519 149.931 202.57 149.931 202.626H143.533V201.884H149.399L149.007 202.178C149.007 201.646 148.891 201.175 148.657 200.764C148.433 200.344 148.125 200.017 147.733 199.784C147.341 199.551 146.889 199.434 146.375 199.434C145.871 199.434 145.419 199.551 145.017 199.784C144.616 200.017 144.303 200.344 144.079 200.764C143.855 201.184 143.743 201.665 143.743 202.206V202.36C143.743 202.92 143.865 203.415 144.107 203.844C144.359 204.264 144.705 204.595 145.143 204.838C145.591 205.071 146.1 205.188 146.669 205.188C147.117 205.188 147.533 205.109 147.915 204.95C148.307 204.791 148.643 204.549 148.923 204.222L149.483 204.866C149.157 205.258 148.746 205.557 148.251 205.762C147.766 205.967 147.229 206.07 146.641 206.07ZM154.142 206.07C153.536 206.07 152.962 205.986 152.42 205.818C151.879 205.641 151.454 205.421 151.146 205.16L151.594 204.376C151.893 204.6 152.276 204.796 152.742 204.964C153.209 205.123 153.699 205.202 154.212 205.202C154.912 205.202 155.416 205.095 155.724 204.88C156.032 204.656 156.186 204.362 156.186 203.998C156.186 203.727 156.098 203.517 155.92 203.368C155.752 203.209 155.528 203.093 155.248 203.018C154.968 202.934 154.656 202.864 154.31 202.808C153.965 202.752 153.62 202.687 153.274 202.612C152.938 202.537 152.63 202.43 152.35 202.29C152.07 202.141 151.842 201.94 151.664 201.688C151.496 201.436 151.412 201.1 151.412 200.68C151.412 200.279 151.524 199.919 151.748 199.602C151.972 199.285 152.299 199.037 152.728 198.86C153.167 198.673 153.699 198.58 154.324 198.58C154.8 198.58 155.276 198.645 155.752 198.776C156.228 198.897 156.62 199.061 156.928 199.266L156.494 200.064C156.168 199.84 155.818 199.681 155.444 199.588C155.071 199.485 154.698 199.434 154.324 199.434C153.662 199.434 153.172 199.551 152.854 199.784C152.546 200.008 152.392 200.297 152.392 200.652C152.392 200.932 152.476 201.151 152.644 201.31C152.822 201.469 153.05 201.595 153.33 201.688C153.62 201.772 153.932 201.842 154.268 201.898C154.614 201.954 154.954 202.024 155.29 202.108C155.636 202.183 155.948 202.29 156.228 202.43C156.518 202.561 156.746 202.752 156.914 203.004C157.092 203.247 157.18 203.569 157.18 203.97C157.18 204.399 157.059 204.773 156.816 205.09C156.583 205.398 156.238 205.641 155.78 205.818C155.332 205.986 154.786 206.07 154.142 206.07ZM159.302 206.07C159.097 206.07 158.92 205.995 158.77 205.846C158.63 205.697 158.56 205.515 158.56 205.3C158.56 205.076 158.63 204.894 158.77 204.754C158.92 204.614 159.097 204.544 159.302 204.544C159.508 204.544 159.68 204.614 159.82 204.754C159.97 204.894 160.044 205.076 160.044 205.3C160.044 205.515 159.97 205.697 159.82 205.846C159.68 205.995 159.508 206.07 159.302 206.07Z" fill="#737373"/>
</svg>
