<svg width="240" height="246" viewBox="0 0 240 246" fill="none" xmlns="http://www.w3.org/2000/svg">
<rect x="84" y="35" width="72" height="72" rx="16" fill="#D6F1CC"/>
<path d="M131.667 83.1667H132.167V82.6667V59.3333V58.8333H131.667H108.333H107.833V59.3333V82.6667V83.1667H108.333H131.667ZM108.333 56.5H131.667C132.418 56.5 133.139 56.7985 133.67 57.3299C134.201 57.8612 134.5 58.5819 134.5 59.3333V82.6667C134.5 83.4181 134.201 84.1388 133.67 84.6701C133.139 85.2015 132.418 85.5 131.667 85.5H108.333C107.582 85.5 106.861 85.2015 106.33 84.6701C105.799 84.1388 105.5 83.4181 105.5 82.6667V59.3333C105.5 58.5819 105.799 57.8612 106.33 57.3299C106.861 56.7985 107.582 56.5 108.333 56.5ZM114.5 78.8333H112.167V71.5H114.5V78.8333ZM121.167 78.8333H118.833V63.1667H121.167V78.8333ZM127.833 78.8333H125.5V68.1667H127.833V78.8333Z" fill="#23856D" stroke="#23856D"/>
<path d="M41.5636 145V135.912H37.9796V133.8H47.7396V135.912H44.1556V145H41.5636ZM52.4553 145.128C51.4739 145.128 50.6099 144.936 49.8633 144.552C49.1273 144.168 48.5566 143.645 48.1513 142.984C47.7459 142.312 47.5433 141.549 47.5433 140.696C47.5433 139.832 47.7406 139.069 48.1353 138.408C48.5406 137.736 49.0899 137.213 49.7833 136.84C50.4766 136.456 51.2606 136.264 52.1353 136.264C52.9779 136.264 53.7353 136.445 54.4073 136.808C55.0899 137.16 55.6286 137.672 56.0233 138.344C56.4179 139.005 56.6153 139.8 56.6153 140.728C56.6153 140.824 56.6099 140.936 56.5993 141.064C56.5886 141.181 56.5779 141.293 56.5673 141.4H49.5753V139.944H55.2552L54.2953 140.376C54.2953 139.928 54.2046 139.539 54.0233 139.208C53.8419 138.877 53.5913 138.621 53.2713 138.44C52.9513 138.248 52.5779 138.152 52.1513 138.152C51.7246 138.152 51.3459 138.248 51.0153 138.44C50.6953 138.621 50.4446 138.883 50.2633 139.224C50.0819 139.555 49.9913 139.949 49.9913 140.408V140.792C49.9913 141.261 50.0926 141.677 50.2953 142.04C50.5086 142.392 50.8019 142.664 51.1753 142.856C51.5593 143.037 52.0073 143.128 52.5193 143.128C52.9779 143.128 53.3779 143.059 53.7193 142.92C54.0713 142.781 54.3913 142.573 54.6793 142.296L56.0073 143.736C55.6126 144.184 55.1166 144.531 54.5193 144.776C53.9219 145.011 53.2339 145.128 52.4553 145.128ZM63.4226 145V143.32L63.2626 142.952V139.944C63.2626 139.411 63.0973 138.995 62.7666 138.696C62.4466 138.397 61.9506 138.248 61.2786 138.248C60.82 138.248 60.3666 138.323 59.9186 138.472C59.4813 138.611 59.108 138.803 58.7986 139.048L57.9026 137.304C58.372 136.973 58.9373 136.717 59.5986 136.536C60.26 136.355 60.932 136.264 61.6146 136.264C62.9266 136.264 63.9453 136.573 64.6706 137.192C65.396 137.811 65.7586 138.776 65.7586 140.088V145H63.4226ZM60.7986 145.128C60.1266 145.128 59.5506 145.016 59.0706 144.792C58.5906 144.557 58.2226 144.243 57.9666 143.848C57.7106 143.453 57.5826 143.011 57.5826 142.52C57.5826 142.008 57.7053 141.56 57.9506 141.176C58.2066 140.792 58.6066 140.493 59.1506 140.28C59.6946 140.056 60.404 139.944 61.2786 139.944H63.5666V141.4H61.5506C60.964 141.4 60.5586 141.496 60.3346 141.688C60.1213 141.88 60.0146 142.12 60.0146 142.408C60.0146 142.728 60.1373 142.984 60.3826 143.176C60.6386 143.357 60.9853 143.448 61.4226 143.448C61.8386 143.448 62.212 143.352 62.5426 143.16C62.8733 142.957 63.1133 142.664 63.2626 142.28L63.6466 143.432C63.4653 143.987 63.1346 144.408 62.6546 144.696C62.1746 144.984 61.556 145.128 60.7986 145.128ZM79.1416 136.264C79.8243 136.264 80.427 136.403 80.9496 136.68C81.483 136.947 81.899 137.363 82.1976 137.928C82.507 138.483 82.6616 139.197 82.6616 140.072V145H80.1656V140.456C80.1656 139.763 80.0216 139.251 79.7336 138.92C79.4456 138.589 79.0403 138.424 78.5176 138.424C78.155 138.424 77.8296 138.509 77.5416 138.68C77.2536 138.84 77.0296 139.085 76.8696 139.416C76.7096 139.747 76.6296 140.168 76.6296 140.68V145H74.1336V140.456C74.1336 139.763 73.9896 139.251 73.7016 138.92C73.4243 138.589 73.0243 138.424 72.5016 138.424C72.139 138.424 71.8136 138.509 71.5256 138.68C71.2376 138.84 71.0136 139.085 70.8536 139.416C70.6936 139.747 70.6136 140.168 70.6136 140.68V145H68.1176V136.392H70.5016V138.744L70.0536 138.056C70.3523 137.469 70.7736 137.027 71.3176 136.728C71.8723 136.419 72.5016 136.264 73.2056 136.264C73.995 136.264 74.683 136.467 75.2696 136.872C75.867 137.267 76.2616 137.875 76.4536 138.696L75.5736 138.456C75.8616 137.784 76.3203 137.251 76.9496 136.856C77.5896 136.461 78.3203 136.264 79.1416 136.264ZM95.1661 145.192C94.3021 145.192 93.4968 145.053 92.7501 144.776C92.0141 144.488 91.3741 144.083 90.8301 143.56C90.2861 143.037 89.8595 142.424 89.5501 141.72C89.2515 141.016 89.1021 140.243 89.1021 139.4C89.1021 138.557 89.2515 137.784 89.5501 137.08C89.8595 136.376 90.2861 135.763 90.8301 135.24C91.3848 134.717 92.0301 134.317 92.7661 134.04C93.5021 133.752 94.3075 133.608 95.1821 133.608C96.1528 133.608 97.0275 133.779 97.8061 134.12C98.5955 134.451 99.2568 134.941 99.7901 135.592L98.1261 137.128C97.7421 136.691 97.3155 136.365 96.8461 136.152C96.3768 135.928 95.8648 135.816 95.3101 135.816C94.7875 135.816 94.3075 135.901 93.8701 136.072C93.4328 136.243 93.0541 136.488 92.7341 136.808C92.4141 137.128 92.1635 137.507 91.9821 137.944C91.8115 138.381 91.7261 138.867 91.7261 139.4C91.7261 139.933 91.8115 140.419 91.9821 140.856C92.1635 141.293 92.4141 141.672 92.7341 141.992C93.0541 142.312 93.4328 142.557 93.8701 142.728C94.3075 142.899 94.7875 142.984 95.3101 142.984C95.8648 142.984 96.3768 142.877 96.8461 142.664C97.3155 142.44 97.7421 142.104 98.1261 141.656L99.7901 143.192C99.2568 143.843 98.5955 144.339 97.8061 144.68C97.0275 145.021 96.1475 145.192 95.1661 145.192ZM105.264 145.128C104.346 145.128 103.53 144.936 102.816 144.552C102.112 144.168 101.552 143.645 101.136 142.984C100.73 142.312 100.528 141.549 100.528 140.696C100.528 139.832 100.73 139.069 101.136 138.408C101.552 137.736 102.112 137.213 102.816 136.84C103.53 136.456 104.346 136.264 105.264 136.264C106.17 136.264 106.981 136.456 107.696 136.84C108.41 137.213 108.97 137.731 109.376 138.392C109.781 139.053 109.984 139.821 109.984 140.696C109.984 141.549 109.781 142.312 109.376 142.984C108.97 143.645 108.41 144.168 107.696 144.552C106.981 144.936 106.17 145.128 105.264 145.128ZM105.264 143.08C105.68 143.08 106.053 142.984 106.384 142.792C106.714 142.6 106.976 142.328 107.168 141.976C107.36 141.613 107.456 141.187 107.456 140.696C107.456 140.195 107.36 139.768 107.168 139.416C106.976 139.064 106.714 138.792 106.384 138.6C106.053 138.408 105.68 138.312 105.264 138.312C104.848 138.312 104.474 138.408 104.144 138.6C103.813 138.792 103.546 139.064 103.344 139.416C103.152 139.768 103.056 140.195 103.056 140.696C103.056 141.187 103.152 141.613 103.344 141.976C103.546 142.328 103.813 142.6 104.144 142.792C104.474 142.984 104.848 143.08 105.264 143.08ZM111.752 145V133.128H114.248V145H111.752ZM116.665 145V133.128H119.161V145H116.665ZM126.857 145V143.32L126.697 142.952V139.944C126.697 139.411 126.532 138.995 126.201 138.696C125.881 138.397 125.385 138.248 124.713 138.248C124.254 138.248 123.801 138.323 123.353 138.472C122.916 138.611 122.542 138.803 122.233 139.048L121.337 137.304C121.806 136.973 122.372 136.717 123.033 136.536C123.694 136.355 124.366 136.264 125.049 136.264C126.361 136.264 127.38 136.573 128.105 137.192C128.83 137.811 129.193 138.776 129.193 140.088V145H126.857ZM124.233 145.128C123.561 145.128 122.985 145.016 122.505 144.792C122.025 144.557 121.657 144.243 121.401 143.848C121.145 143.453 121.017 143.011 121.017 142.52C121.017 142.008 121.14 141.56 121.385 141.176C121.641 140.792 122.041 140.493 122.585 140.28C123.129 140.056 123.838 139.944 124.713 139.944H127.001V141.4H124.985C124.398 141.4 123.993 141.496 123.769 141.688C123.556 141.88 123.449 142.12 123.449 142.408C123.449 142.728 123.572 142.984 123.817 143.176C124.073 143.357 124.42 143.448 124.857 143.448C125.273 143.448 125.646 143.352 125.977 143.16C126.308 142.957 126.548 142.664 126.697 142.28L127.081 143.432C126.9 143.987 126.569 144.408 126.089 144.696C125.609 144.984 124.99 145.128 124.233 145.128ZM136.64 145.128C135.883 145.128 135.232 144.968 134.688 144.648C134.144 144.328 133.728 143.843 133.44 143.192C133.152 142.531 133.008 141.699 133.008 140.696C133.008 139.683 133.157 138.851 133.456 138.2C133.765 137.549 134.192 137.064 134.736 136.744C135.28 136.424 135.915 136.264 136.64 136.264C137.451 136.264 138.176 136.445 138.816 136.808C139.467 137.171 139.979 137.683 140.352 138.344C140.736 139.005 140.928 139.789 140.928 140.696C140.928 141.592 140.736 142.371 140.352 143.032C139.979 143.693 139.467 144.211 138.816 144.584C138.176 144.947 137.451 145.128 136.64 145.128ZM131.552 145V133.128H134.048V138.136L133.888 140.68L133.936 143.24V145H131.552ZM136.208 143.08C136.624 143.08 136.992 142.984 137.312 142.792C137.643 142.6 137.904 142.328 138.096 141.976C138.299 141.613 138.4 141.187 138.4 140.696C138.4 140.195 138.299 139.768 138.096 139.416C137.904 139.064 137.643 138.792 137.312 138.6C136.992 138.408 136.624 138.312 136.208 138.312C135.792 138.312 135.419 138.408 135.088 138.6C134.757 138.792 134.496 139.064 134.304 139.416C134.112 139.768 134.016 140.195 134.016 140.696C134.016 141.187 134.112 141.613 134.304 141.976C134.496 142.328 134.757 142.6 135.088 142.792C135.419 142.984 135.792 143.08 136.208 143.08ZM146.795 145.128C145.878 145.128 145.062 144.936 144.347 144.552C143.643 144.168 143.083 143.645 142.667 142.984C142.262 142.312 142.059 141.549 142.059 140.696C142.059 139.832 142.262 139.069 142.667 138.408C143.083 137.736 143.643 137.213 144.347 136.84C145.062 136.456 145.878 136.264 146.795 136.264C147.702 136.264 148.512 136.456 149.227 136.84C149.942 137.213 150.502 137.731 150.907 138.392C151.312 139.053 151.515 139.821 151.515 140.696C151.515 141.549 151.312 142.312 150.907 142.984C150.502 143.645 149.942 144.168 149.227 144.552C148.512 144.936 147.702 145.128 146.795 145.128ZM146.795 143.08C147.211 143.08 147.584 142.984 147.915 142.792C148.246 142.6 148.507 142.328 148.699 141.976C148.891 141.613 148.987 141.187 148.987 140.696C148.987 140.195 148.891 139.768 148.699 139.416C148.507 139.064 148.246 138.792 147.915 138.6C147.584 138.408 147.211 138.312 146.795 138.312C146.379 138.312 146.006 138.408 145.675 138.6C145.344 138.792 145.078 139.064 144.875 139.416C144.683 139.768 144.587 140.195 144.587 140.696C144.587 141.187 144.683 141.613 144.875 141.976C145.078 142.328 145.344 142.6 145.675 142.792C146.006 142.984 146.379 143.08 146.795 143.08ZM153.283 145V136.392H155.667V138.824L155.331 138.12C155.587 137.512 155.998 137.053 156.563 136.744C157.129 136.424 157.817 136.264 158.627 136.264V138.568C158.521 138.557 158.425 138.552 158.339 138.552C158.254 138.541 158.163 138.536 158.067 138.536C157.385 138.536 156.83 138.733 156.403 139.128C155.987 139.512 155.779 140.115 155.779 140.936V145H153.283ZM164.929 145V143.32L164.769 142.952V139.944C164.769 139.411 164.604 138.995 164.273 138.696C163.953 138.397 163.457 138.248 162.785 138.248C162.326 138.248 161.873 138.323 161.425 138.472C160.988 138.611 160.614 138.803 160.305 139.048L159.409 137.304C159.878 136.973 160.444 136.717 161.105 136.536C161.766 136.355 162.438 136.264 163.121 136.264C164.433 136.264 165.452 136.573 166.177 137.192C166.902 137.811 167.265 138.776 167.265 140.088V145H164.929ZM162.305 145.128C161.633 145.128 161.057 145.016 160.577 144.792C160.097 144.557 159.729 144.243 159.473 143.848C159.217 143.453 159.089 143.011 159.089 142.52C159.089 142.008 159.212 141.56 159.457 141.176C159.713 140.792 160.113 140.493 160.657 140.28C161.201 140.056 161.91 139.944 162.785 139.944H165.073V141.4H163.057C162.47 141.4 162.065 141.496 161.841 141.688C161.628 141.88 161.521 142.12 161.521 142.408C161.521 142.728 161.644 142.984 161.889 143.176C162.145 143.357 162.492 143.448 162.929 143.448C163.345 143.448 163.718 143.352 164.049 143.16C164.38 142.957 164.62 142.664 164.769 142.28L165.153 143.432C164.972 143.987 164.641 144.408 164.161 144.696C163.681 144.984 163.062 145.128 162.305 145.128ZM173.144 145.128C172.131 145.128 171.341 144.872 170.776 144.36C170.211 143.837 169.928 143.064 169.928 142.04V134.488H172.424V142.008C172.424 142.371 172.52 142.653 172.712 142.856C172.904 143.048 173.165 143.144 173.496 143.144C173.891 143.144 174.227 143.037 174.504 142.824L175.176 144.584C174.92 144.765 174.611 144.904 174.248 145C173.896 145.085 173.528 145.128 173.144 145.128ZM168.6 138.504V136.584H174.568V138.504H168.6ZM176.677 145V136.392H179.173V145H176.677ZM177.925 135.192C177.466 135.192 177.093 135.059 176.805 134.792C176.517 134.525 176.373 134.195 176.373 133.8C176.373 133.405 176.517 133.075 176.805 132.808C177.093 132.541 177.466 132.408 177.925 132.408C178.384 132.408 178.757 132.536 179.045 132.792C179.333 133.037 179.477 133.357 179.477 133.752C179.477 134.168 179.333 134.515 179.045 134.792C178.768 135.059 178.394 135.192 177.925 135.192ZM185.686 145.128C184.768 145.128 183.952 144.936 183.238 144.552C182.534 144.168 181.974 143.645 181.558 142.984C181.152 142.312 180.95 141.549 180.95 140.696C180.95 139.832 181.152 139.069 181.558 138.408C181.974 137.736 182.534 137.213 183.238 136.84C183.952 136.456 184.768 136.264 185.686 136.264C186.592 136.264 187.403 136.456 188.118 136.84C188.832 137.213 189.392 137.731 189.798 138.392C190.203 139.053 190.406 139.821 190.406 140.696C190.406 141.549 190.203 142.312 189.798 142.984C189.392 143.645 188.832 144.168 188.118 144.552C187.403 144.936 186.592 145.128 185.686 145.128ZM185.686 143.08C186.102 143.08 186.475 142.984 186.806 142.792C187.136 142.6 187.398 142.328 187.59 141.976C187.782 141.613 187.878 141.187 187.878 140.696C187.878 140.195 187.782 139.768 187.59 139.416C187.398 139.064 187.136 138.792 186.806 138.6C186.475 138.408 186.102 138.312 185.686 138.312C185.27 138.312 184.896 138.408 184.566 138.6C184.235 138.792 183.968 139.064 183.766 139.416C183.574 139.768 183.478 140.195 183.478 140.696C183.478 141.187 183.574 141.613 183.766 141.976C183.968 142.328 184.235 142.6 184.566 142.792C184.896 142.984 185.27 143.08 185.686 143.08ZM197.406 136.264C198.089 136.264 198.697 136.403 199.23 136.68C199.774 136.947 200.201 137.363 200.51 137.928C200.819 138.483 200.974 139.197 200.974 140.072V145H198.478V140.456C198.478 139.763 198.323 139.251 198.014 138.92C197.715 138.589 197.289 138.424 196.734 138.424C196.339 138.424 195.982 138.509 195.662 138.68C195.353 138.84 195.107 139.091 194.926 139.432C194.755 139.773 194.67 140.211 194.67 140.744V145H192.174V136.392H194.558V138.776L194.11 138.056C194.419 137.48 194.862 137.037 195.438 136.728C196.014 136.419 196.67 136.264 197.406 136.264Z" fill="#252B42"/>
<path d="M29.2481 180.582H34.4281V181.464H29.2481V180.582ZM29.3601 185.104H35.2541V186H28.3241V176.2H35.0441V177.096H29.3601V185.104ZM37.8474 186V177.726C37.8474 177.073 38.0387 176.545 38.4214 176.144C38.804 175.743 39.3547 175.542 40.0734 175.542C40.3534 175.542 40.624 175.579 40.8854 175.654C41.1467 175.729 41.366 175.845 41.5434 176.004L41.2074 176.746C41.0674 176.625 40.904 176.536 40.7174 176.48C40.5307 176.415 40.33 176.382 40.1154 176.382C39.6954 176.382 39.3734 176.499 39.1494 176.732C38.9254 176.965 38.8134 177.311 38.8134 177.768V178.888L38.8414 179.35V186H37.8474ZM36.5314 179.476V178.65H41.0814V179.476H36.5314ZM42.7915 186V177.726C42.7915 177.073 42.9828 176.545 43.3655 176.144C43.7482 175.743 44.2988 175.542 45.0175 175.542C45.2975 175.542 45.5682 175.579 45.8295 175.654C46.0908 175.729 46.3102 175.845 46.4875 176.004L46.1515 176.746C46.0115 176.625 45.8482 176.536 45.6615 176.48C45.4748 176.415 45.2742 176.382 45.0595 176.382C44.6395 176.382 44.3175 176.499 44.0935 176.732C43.8695 176.965 43.7575 177.311 43.7575 177.768V178.888L43.7855 179.35V186H42.7915ZM41.4755 179.476V178.65H46.0255V179.476H41.4755ZM47.3695 186V178.65H48.3635V186H47.3695ZM47.8735 177.026C47.6682 177.026 47.4955 176.956 47.3555 176.816C47.2155 176.676 47.1455 176.508 47.1455 176.312C47.1455 176.116 47.2155 175.953 47.3555 175.822C47.4955 175.682 47.6682 175.612 47.8735 175.612C48.0788 175.612 48.2515 175.677 48.3915 175.808C48.5315 175.939 48.6015 176.102 48.6015 176.298C48.6015 176.503 48.5315 176.676 48.3915 176.816C48.2608 176.956 48.0882 177.026 47.8735 177.026ZM54.4068 186.07C53.6788 186.07 53.0254 185.911 52.4468 185.594C51.8774 185.267 51.4294 184.824 51.1028 184.264C50.7761 183.695 50.6128 183.046 50.6128 182.318C50.6128 181.581 50.7761 180.932 51.1028 180.372C51.4294 179.812 51.8774 179.373 52.4468 179.056C53.0254 178.739 53.6788 178.58 54.4068 178.58C55.0321 178.58 55.5968 178.701 56.1008 178.944C56.6048 179.187 57.0014 179.551 57.2908 180.036L56.5488 180.54C56.2968 180.167 55.9841 179.891 55.6108 179.714C55.2374 179.537 54.8314 179.448 54.3928 179.448C53.8701 179.448 53.3988 179.569 52.9788 179.812C52.5588 180.045 52.2274 180.377 51.9848 180.806C51.7421 181.235 51.6208 181.739 51.6208 182.318C51.6208 182.897 51.7421 183.401 51.9848 183.83C52.2274 184.259 52.5588 184.595 52.9788 184.838C53.3988 185.071 53.8701 185.188 54.3928 185.188C54.8314 185.188 55.2374 185.099 55.6108 184.922C55.9841 184.745 56.2968 184.474 56.5488 184.11L57.2908 184.614C57.0014 185.09 56.6048 185.454 56.1008 185.706C55.5968 185.949 55.0321 186.07 54.4068 186.07ZM59.334 186V178.65H60.328V186H59.334ZM59.838 177.026C59.6327 177.026 59.46 176.956 59.32 176.816C59.18 176.676 59.11 176.508 59.11 176.312C59.11 176.116 59.18 175.953 59.32 175.822C59.46 175.682 59.6327 175.612 59.838 175.612C60.0434 175.612 60.216 175.677 60.356 175.808C60.496 175.939 60.566 176.102 60.566 176.298C60.566 176.503 60.496 176.676 60.356 176.816C60.2254 176.956 60.0527 177.026 59.838 177.026ZM66.4158 186.07C65.6505 186.07 64.9785 185.911 64.3998 185.594C63.8211 185.267 63.3685 184.824 63.0418 184.264C62.7151 183.695 62.5518 183.046 62.5518 182.318C62.5518 181.59 62.7058 180.946 63.0138 180.386C63.3311 179.826 63.7605 179.387 64.3018 179.07C64.8525 178.743 65.4685 178.58 66.1498 178.58C66.8405 178.58 67.4518 178.739 67.9838 179.056C68.5251 179.364 68.9498 179.803 69.2578 180.372C69.5658 180.932 69.7198 181.581 69.7198 182.318C69.7198 182.365 69.7151 182.416 69.7058 182.472C69.7058 182.519 69.7058 182.57 69.7058 182.626H63.3078V181.884H69.1738L68.7818 182.178C68.7818 181.646 68.6651 181.175 68.4318 180.764C68.2078 180.344 67.8998 180.017 67.5078 179.784C67.1158 179.551 66.6631 179.434 66.1498 179.434C65.6458 179.434 65.1931 179.551 64.7918 179.784C64.3905 180.017 64.0778 180.344 63.8538 180.764C63.6298 181.184 63.5178 181.665 63.5178 182.206V182.36C63.5178 182.92 63.6391 183.415 63.8818 183.844C64.1338 184.264 64.4791 184.595 64.9178 184.838C65.3658 185.071 65.8745 185.188 66.4438 185.188C66.8918 185.188 67.3071 185.109 67.6898 184.95C68.0818 184.791 68.4178 184.549 68.6978 184.222L69.2578 184.866C68.9311 185.258 68.5205 185.557 68.0258 185.762C67.5405 185.967 67.0038 186.07 66.4158 186.07ZM75.695 178.58C76.2924 178.58 76.815 178.697 77.263 178.93C77.7204 179.154 78.075 179.499 78.327 179.966C78.5884 180.433 78.719 181.021 78.719 181.73V186H77.725V181.828C77.725 181.053 77.529 180.47 77.137 180.078C76.7544 179.677 76.213 179.476 75.513 179.476C74.9904 179.476 74.533 179.583 74.141 179.798C73.7584 180.003 73.4597 180.307 73.245 180.708C73.0397 181.1 72.937 181.576 72.937 182.136V186H71.943V178.65H72.895V180.666L72.741 180.288C72.9744 179.756 73.3477 179.341 73.861 179.042C74.3744 178.734 74.9857 178.58 75.695 178.58ZM83.928 186.07C83.2373 186.07 82.7053 185.883 82.332 185.51C81.9586 185.137 81.772 184.609 81.772 183.928V177.026H82.766V183.872C82.766 184.301 82.8733 184.633 83.088 184.866C83.312 185.099 83.6293 185.216 84.04 185.216C84.4786 185.216 84.8426 185.09 85.132 184.838L85.482 185.552C85.286 185.729 85.048 185.86 84.768 185.944C84.4973 186.028 84.2173 186.07 83.928 186.07ZM80.456 179.476V178.65H85.006V179.476H80.456ZM87.4915 186V175.612H88.4855V186H87.4915ZM91.5072 188.786C91.1619 188.786 90.8306 188.73 90.5132 188.618C90.2052 188.506 89.9392 188.338 89.7152 188.114L90.1772 187.372C90.3639 187.549 90.5646 187.685 90.7792 187.778C91.0032 187.881 91.2506 187.932 91.5212 187.932C91.8479 187.932 92.1279 187.839 92.3612 187.652C92.6039 187.475 92.8326 187.157 93.0472 186.7L93.5232 185.622L93.6352 185.468L96.6592 178.65H97.6392L93.9572 186.882C93.7519 187.358 93.5232 187.736 93.2712 188.016C93.0286 188.296 92.7626 188.492 92.4732 188.604C92.1839 188.725 91.8619 188.786 91.5072 188.786ZM93.4672 186.21L90.0792 178.65H91.1152L94.1112 185.398L93.4672 186.21ZM106.155 186.07C105.427 186.07 104.774 185.911 104.195 185.594C103.626 185.267 103.178 184.824 102.851 184.264C102.525 183.695 102.361 183.046 102.361 182.318C102.361 181.581 102.525 180.932 102.851 180.372C103.178 179.812 103.626 179.373 104.195 179.056C104.774 178.739 105.427 178.58 106.155 178.58C106.781 178.58 107.345 178.701 107.849 178.944C108.353 179.187 108.75 179.551 109.039 180.036L108.297 180.54C108.045 180.167 107.733 179.891 107.359 179.714C106.986 179.537 106.58 179.448 106.141 179.448C105.619 179.448 105.147 179.569 104.727 179.812C104.307 180.045 103.976 180.377 103.733 180.806C103.491 181.235 103.369 181.739 103.369 182.318C103.369 182.897 103.491 183.401 103.733 183.83C103.976 184.259 104.307 184.595 104.727 184.838C105.147 185.071 105.619 185.188 106.141 185.188C106.58 185.188 106.986 185.099 107.359 184.922C107.733 184.745 108.045 184.474 108.297 184.11L109.039 184.614C108.75 185.09 108.353 185.454 107.849 185.706C107.345 185.949 106.781 186.07 106.155 186.07ZM114.065 186.07C113.355 186.07 112.716 185.911 112.147 185.594C111.587 185.267 111.143 184.824 110.817 184.264C110.49 183.695 110.327 183.046 110.327 182.318C110.327 181.581 110.49 180.932 110.817 180.372C111.143 179.812 111.587 179.373 112.147 179.056C112.707 178.739 113.346 178.58 114.065 178.58C114.793 178.58 115.437 178.739 115.997 179.056C116.566 179.373 117.009 179.812 117.327 180.372C117.653 180.932 117.817 181.581 117.817 182.318C117.817 183.046 117.653 183.695 117.327 184.264C117.009 184.824 116.566 185.267 115.997 185.594C115.427 185.911 114.783 186.07 114.065 186.07ZM114.065 185.188C114.597 185.188 115.068 185.071 115.479 184.838C115.889 184.595 116.211 184.259 116.445 183.83C116.687 183.391 116.809 182.887 116.809 182.318C116.809 181.739 116.687 181.235 116.445 180.806C116.211 180.377 115.889 180.045 115.479 179.812C115.068 179.569 114.601 179.448 114.079 179.448C113.556 179.448 113.089 179.569 112.679 179.812C112.268 180.045 111.941 180.377 111.699 180.806C111.456 181.235 111.335 181.739 111.335 182.318C111.335 182.887 111.456 183.391 111.699 183.83C111.941 184.259 112.268 184.595 112.679 184.838C113.089 185.071 113.551 185.188 114.065 185.188ZM120.046 186V175.612H121.04V186H120.046ZM124.006 186V175.612H125V186H124.006ZM132.572 186V184.376L132.53 184.11V181.394C132.53 180.769 132.352 180.288 131.998 179.952C131.652 179.616 131.134 179.448 130.444 179.448C129.968 179.448 129.515 179.527 129.086 179.686C128.656 179.845 128.292 180.055 127.994 180.316L127.546 179.574C127.919 179.257 128.367 179.014 128.89 178.846C129.412 178.669 129.963 178.58 130.542 178.58C131.494 178.58 132.226 178.818 132.74 179.294C133.262 179.761 133.524 180.475 133.524 181.436V186H132.572ZM130.038 186.07C129.487 186.07 129.006 185.981 128.596 185.804C128.194 185.617 127.886 185.365 127.672 185.048C127.457 184.721 127.35 184.348 127.35 183.928C127.35 183.545 127.438 183.2 127.616 182.892C127.802 182.575 128.101 182.323 128.512 182.136C128.932 181.94 129.492 181.842 130.192 181.842H132.726V182.584H130.22C129.51 182.584 129.016 182.71 128.736 182.962C128.465 183.214 128.33 183.527 128.33 183.9C128.33 184.32 128.493 184.656 128.82 184.908C129.146 185.16 129.604 185.286 130.192 185.286C130.752 185.286 131.232 185.16 131.634 184.908C132.044 184.647 132.343 184.273 132.53 183.788L132.754 184.474C132.567 184.959 132.24 185.347 131.774 185.636C131.316 185.925 130.738 186.07 130.038 186.07ZM140.217 186.07C139.573 186.07 138.995 185.925 138.481 185.636C137.968 185.337 137.562 184.908 137.263 184.348C136.965 183.788 136.815 183.111 136.815 182.318C136.815 181.515 136.965 180.839 137.263 180.288C137.571 179.728 137.982 179.303 138.495 179.014C139.009 178.725 139.583 178.58 140.217 178.58C140.917 178.58 141.543 178.739 142.093 179.056C142.653 179.364 143.092 179.798 143.409 180.358C143.727 180.918 143.885 181.571 143.885 182.318C143.885 183.055 143.727 183.709 143.409 184.278C143.092 184.838 142.653 185.277 142.093 185.594C141.543 185.911 140.917 186.07 140.217 186.07ZM136.423 186V175.612H137.417V180.82L137.277 182.304L137.375 183.788V186H136.423ZM140.147 185.188C140.67 185.188 141.137 185.071 141.547 184.838C141.958 184.595 142.285 184.259 142.527 183.83C142.77 183.391 142.891 182.887 142.891 182.318C142.891 181.739 142.77 181.235 142.527 180.806C142.285 180.377 141.958 180.045 141.547 179.812C141.137 179.569 140.67 179.448 140.147 179.448C139.625 179.448 139.153 179.569 138.733 179.812C138.323 180.045 137.996 180.377 137.753 180.806C137.52 181.235 137.403 181.739 137.403 182.318C137.403 182.887 137.52 183.391 137.753 183.83C137.996 184.259 138.323 184.595 138.733 184.838C139.153 185.071 139.625 185.188 140.147 185.188ZM149.108 186.07C148.398 186.07 147.759 185.911 147.19 185.594C146.63 185.267 146.186 184.824 145.86 184.264C145.533 183.695 145.37 183.046 145.37 182.318C145.37 181.581 145.533 180.932 145.86 180.372C146.186 179.812 146.63 179.373 147.19 179.056C147.75 178.739 148.389 178.58 149.108 178.58C149.836 178.58 150.48 178.739 151.04 179.056C151.609 179.373 152.052 179.812 152.37 180.372C152.696 180.932 152.86 181.581 152.86 182.318C152.86 183.046 152.696 183.695 152.37 184.264C152.052 184.824 151.609 185.267 151.04 185.594C150.47 185.911 149.826 186.07 149.108 186.07ZM149.108 185.188C149.64 185.188 150.111 185.071 150.522 184.838C150.932 184.595 151.254 184.259 151.488 183.83C151.73 183.391 151.852 182.887 151.852 182.318C151.852 181.739 151.73 181.235 151.488 180.806C151.254 180.377 150.932 180.045 150.522 179.812C150.111 179.569 149.644 179.448 149.122 179.448C148.599 179.448 148.132 179.569 147.722 179.812C147.311 180.045 146.984 180.377 146.742 180.806C146.499 181.235 146.378 181.739 146.378 182.318C146.378 182.887 146.499 183.391 146.742 183.83C146.984 184.259 147.311 184.595 147.722 184.838C148.132 185.071 148.594 185.188 149.108 185.188ZM155.089 186V178.65H156.041V180.652L155.943 180.302C156.148 179.742 156.494 179.317 156.979 179.028C157.464 178.729 158.066 178.58 158.785 178.58V179.546C158.748 179.546 158.71 179.546 158.673 179.546C158.636 179.537 158.598 179.532 158.561 179.532C157.786 179.532 157.18 179.77 156.741 180.246C156.302 180.713 156.083 181.38 156.083 182.248V186H155.089ZM164.858 186V184.376L164.816 184.11V181.394C164.816 180.769 164.639 180.288 164.284 179.952C163.939 179.616 163.421 179.448 162.73 179.448C162.254 179.448 161.801 179.527 161.372 179.686C160.943 179.845 160.579 180.055 160.28 180.316L159.832 179.574C160.205 179.257 160.653 179.014 161.176 178.846C161.699 178.669 162.249 178.58 162.828 178.58C163.78 178.58 164.513 178.818 165.026 179.294C165.549 179.761 165.81 180.475 165.81 181.436V186H164.858ZM162.324 186.07C161.773 186.07 161.293 185.981 160.882 185.804C160.481 185.617 160.173 185.365 159.958 185.048C159.743 184.721 159.636 184.348 159.636 183.928C159.636 183.545 159.725 183.2 159.902 182.892C160.089 182.575 160.387 182.323 160.798 182.136C161.218 181.94 161.778 181.842 162.478 181.842H165.012V182.584H162.506C161.797 182.584 161.302 182.71 161.022 182.962C160.751 183.214 160.616 183.527 160.616 183.9C160.616 184.32 160.779 184.656 161.106 184.908C161.433 185.16 161.89 185.286 162.478 185.286C163.038 185.286 163.519 185.16 163.92 184.908C164.331 184.647 164.629 184.273 164.816 183.788L165.04 184.474C164.853 184.959 164.527 185.347 164.06 185.636C163.603 185.925 163.024 186.07 162.324 186.07ZM171.034 186.07C170.343 186.07 169.811 185.883 169.438 185.51C169.064 185.137 168.878 184.609 168.878 183.928V177.026H169.872V183.872C169.872 184.301 169.979 184.633 170.194 184.866C170.418 185.099 170.735 185.216 171.146 185.216C171.584 185.216 171.948 185.09 172.238 184.838L172.588 185.552C172.392 185.729 172.154 185.86 171.874 185.944C171.603 186.028 171.323 186.07 171.034 186.07ZM167.562 179.476V178.65H172.112V179.476H167.562ZM177.46 186.07C176.694 186.07 176.022 185.911 175.444 185.594C174.865 185.267 174.412 184.824 174.086 184.264C173.759 183.695 173.596 183.046 173.596 182.318C173.596 181.59 173.75 180.946 174.058 180.386C174.375 179.826 174.804 179.387 175.346 179.07C175.896 178.743 176.512 178.58 177.194 178.58C177.884 178.58 178.496 178.739 179.028 179.056C179.569 179.364 179.994 179.803 180.302 180.372C180.61 180.932 180.764 181.581 180.764 182.318C180.764 182.365 180.759 182.416 180.75 182.472C180.75 182.519 180.75 182.57 180.75 182.626H174.352V181.884H180.218L179.826 182.178C179.826 181.646 179.709 181.175 179.476 180.764C179.252 180.344 178.944 180.017 178.552 179.784C178.16 179.551 177.707 179.434 177.194 179.434C176.69 179.434 176.237 179.551 175.836 179.784C175.434 180.017 175.122 180.344 174.898 180.764C174.674 181.184 174.562 181.665 174.562 182.206V182.36C174.562 182.92 174.683 183.415 174.926 183.844C175.178 184.264 175.523 184.595 175.962 184.838C176.41 185.071 176.918 185.188 177.488 185.188C177.936 185.188 178.351 185.109 178.734 184.95C179.126 184.791 179.462 184.549 179.742 184.222L180.302 184.866C179.975 185.258 179.564 185.557 179.07 185.762C178.584 185.967 178.048 186.07 177.46 186.07ZM191.457 186V184.376L191.415 184.11V181.394C191.415 180.769 191.238 180.288 190.883 179.952C190.538 179.616 190.02 179.448 189.329 179.448C188.853 179.448 188.4 179.527 187.971 179.686C187.542 179.845 187.178 180.055 186.879 180.316L186.431 179.574C186.804 179.257 187.252 179.014 187.775 178.846C188.298 178.669 188.848 178.58 189.427 178.58C190.379 178.58 191.112 178.818 191.625 179.294C192.148 179.761 192.409 180.475 192.409 181.436V186H191.457ZM188.923 186.07C188.372 186.07 187.892 185.981 187.481 185.804C187.08 185.617 186.772 185.365 186.557 185.048C186.342 184.721 186.235 184.348 186.235 183.928C186.235 183.545 186.324 183.2 186.501 182.892C186.688 182.575 186.986 182.323 187.397 182.136C187.817 181.94 188.377 181.842 189.077 181.842H191.611V182.584H189.105C188.396 182.584 187.901 182.71 187.621 182.962C187.35 183.214 187.215 183.527 187.215 183.9C187.215 184.32 187.378 184.656 187.705 184.908C188.032 185.16 188.489 185.286 189.077 185.286C189.637 185.286 190.118 185.16 190.519 184.908C190.93 184.647 191.228 184.273 191.415 183.788L191.639 184.474C191.452 184.959 191.126 185.347 190.659 185.636C190.202 185.925 189.623 186.07 188.923 186.07ZM199.061 178.58C199.658 178.58 200.181 178.697 200.629 178.93C201.086 179.154 201.441 179.499 201.693 179.966C201.954 180.433 202.085 181.021 202.085 181.73V186H201.091V181.828C201.091 181.053 200.895 180.47 200.503 180.078C200.12 179.677 199.579 179.476 198.879 179.476C198.356 179.476 197.899 179.583 197.507 179.798C197.124 180.003 196.825 180.307 196.611 180.708C196.405 181.1 196.303 181.576 196.303 182.136V186H195.309V178.65H196.261V180.666L196.107 180.288C196.34 179.756 196.713 179.341 197.227 179.042C197.74 178.734 198.351 178.58 199.061 178.58ZM207.896 186.07C207.196 186.07 206.566 185.911 206.006 185.594C205.455 185.277 205.021 184.838 204.704 184.278C204.386 183.709 204.228 183.055 204.228 182.318C204.228 181.571 204.386 180.918 204.704 180.358C205.021 179.798 205.455 179.364 206.006 179.056C206.566 178.739 207.196 178.58 207.896 178.58C208.54 178.58 209.114 178.725 209.618 179.014C210.131 179.303 210.537 179.728 210.836 180.288C211.144 180.839 211.298 181.515 211.298 182.318C211.298 183.111 211.148 183.788 210.85 184.348C210.551 184.908 210.145 185.337 209.632 185.636C209.128 185.925 208.549 186.07 207.896 186.07ZM207.966 185.188C208.488 185.188 208.955 185.071 209.366 184.838C209.786 184.595 210.112 184.259 210.346 183.83C210.588 183.391 210.71 182.887 210.71 182.318C210.71 181.739 210.588 181.235 210.346 180.806C210.112 180.377 209.786 180.045 209.366 179.812C208.955 179.569 208.488 179.448 207.966 179.448C207.452 179.448 206.99 179.569 206.58 179.812C206.169 180.045 205.842 180.377 205.6 180.806C205.357 181.235 205.236 181.739 205.236 182.318C205.236 182.887 205.357 183.391 205.6 183.83C205.842 184.259 206.169 184.595 206.58 184.838C206.99 185.071 207.452 185.188 207.966 185.188ZM210.738 186V183.788L210.836 182.304L210.696 180.82V175.612H211.69V186H210.738ZM15.8263 206.07C15.0983 206.07 14.4449 205.911 13.8663 205.594C13.2969 205.267 12.8489 204.824 12.5223 204.264C12.1956 203.695 12.0323 203.046 12.0323 202.318C12.0323 201.581 12.1956 200.932 12.5223 200.372C12.8489 199.812 13.2969 199.373 13.8663 199.056C14.4449 198.739 15.0983 198.58 15.8263 198.58C16.4516 198.58 17.0163 198.701 17.5203 198.944C18.0243 199.187 18.4209 199.551 18.7103 200.036L17.9683 200.54C17.7163 200.167 17.4036 199.891 17.0303 199.714C16.6569 199.537 16.2509 199.448 15.8123 199.448C15.2896 199.448 14.8183 199.569 14.3983 199.812C13.9783 200.045 13.6469 200.377 13.4043 200.806C13.1616 201.235 13.0403 201.739 13.0403 202.318C13.0403 202.897 13.1616 203.401 13.4043 203.83C13.6469 204.259 13.9783 204.595 14.3983 204.838C14.8183 205.071 15.2896 205.188 15.8123 205.188C16.2509 205.188 16.6569 205.099 17.0303 204.922C17.4036 204.745 17.7163 204.474 17.9683 204.11L18.7103 204.614C18.4209 205.09 18.0243 205.454 17.5203 205.706C17.0163 205.949 16.4516 206.07 15.8263 206.07ZM23.7359 206.07C23.0266 206.07 22.3872 205.911 21.8179 205.594C21.2579 205.267 20.8146 204.824 20.4879 204.264C20.1612 203.695 19.9979 203.046 19.9979 202.318C19.9979 201.581 20.1612 200.932 20.4879 200.372C20.8146 199.812 21.2579 199.373 21.8179 199.056C22.3779 198.739 23.0172 198.58 23.7359 198.58C24.4639 198.58 25.1079 198.739 25.6679 199.056C26.2372 199.373 26.6806 199.812 26.9979 200.372C27.3246 200.932 27.4879 201.581 27.4879 202.318C27.4879 203.046 27.3246 203.695 26.9979 204.264C26.6806 204.824 26.2372 205.267 25.6679 205.594C25.0986 205.911 24.4546 206.07 23.7359 206.07ZM23.7359 205.188C24.2679 205.188 24.7392 205.071 25.1499 204.838C25.5606 204.595 25.8826 204.259 26.1159 203.83C26.3586 203.391 26.4799 202.887 26.4799 202.318C26.4799 201.739 26.3586 201.235 26.1159 200.806C25.8826 200.377 25.5606 200.045 25.1499 199.812C24.7392 199.569 24.2726 199.448 23.7499 199.448C23.2272 199.448 22.7606 199.569 22.3499 199.812C21.9392 200.045 21.6126 200.377 21.3699 200.806C21.1272 201.235 21.0059 201.739 21.0059 202.318C21.0059 202.887 21.1272 203.391 21.3699 203.83C21.6126 204.259 21.9392 204.595 22.3499 204.838C22.7606 205.071 23.2226 205.188 23.7359 205.188ZM38.9013 198.58C39.4986 198.58 40.0166 198.697 40.4553 198.93C40.9033 199.154 41.2486 199.499 41.4913 199.966C41.7433 200.433 41.8693 201.021 41.8693 201.73V206H40.8753V201.828C40.8753 201.053 40.6886 200.47 40.3153 200.078C39.9513 199.677 39.4333 199.476 38.7613 199.476C38.2573 199.476 37.8186 199.583 37.4453 199.798C37.0813 200.003 36.7966 200.307 36.5913 200.708C36.3953 201.1 36.2973 201.576 36.2973 202.136V206H35.3033V201.828C35.3033 201.053 35.1166 200.47 34.7433 200.078C34.3699 199.677 33.8473 199.476 33.1753 199.476C32.6806 199.476 32.2466 199.583 31.8733 199.798C31.4999 200.003 31.2106 200.307 31.0053 200.708C30.8093 201.1 30.7113 201.576 30.7113 202.136V206H29.7173V198.65H30.6693V200.638L30.5153 200.288C30.7393 199.756 31.0986 199.341 31.5933 199.042C32.0973 198.734 32.6899 198.58 33.3713 198.58C34.0899 198.58 34.7013 198.762 35.2053 199.126C35.7093 199.481 36.0359 200.017 36.1853 200.736L35.7933 200.582C36.0079 199.985 36.3859 199.504 36.9273 199.14C37.4779 198.767 38.1359 198.58 38.9013 198.58ZM53.9489 198.58C54.5462 198.58 55.0642 198.697 55.5029 198.93C55.9509 199.154 56.2962 199.499 56.5389 199.966C56.7909 200.433 56.9169 201.021 56.9169 201.73V206H55.9229V201.828C55.9229 201.053 55.7362 200.47 55.3629 200.078C54.9989 199.677 54.4809 199.476 53.8089 199.476C53.3049 199.476 52.8662 199.583 52.4929 199.798C52.1289 200.003 51.8442 200.307 51.6389 200.708C51.4429 201.1 51.3449 201.576 51.3449 202.136V206H50.3509V201.828C50.3509 201.053 50.1642 200.47 49.7909 200.078C49.4176 199.677 48.8949 199.476 48.2229 199.476C47.7282 199.476 47.2942 199.583 46.9209 199.798C46.5476 200.003 46.2582 200.307 46.0529 200.708C45.8569 201.1 45.7589 201.576 45.7589 202.136V206H44.7649V198.65H45.7169V200.638L45.5629 200.288C45.7869 199.756 46.1462 199.341 46.6409 199.042C47.1449 198.734 47.7376 198.58 48.4189 198.58C49.1376 198.58 49.7489 198.762 50.2529 199.126C50.7569 199.481 51.0836 200.017 51.2329 200.736L50.8409 200.582C51.0556 199.985 51.4336 199.504 51.9749 199.14C52.5256 198.767 53.1836 198.58 53.9489 198.58ZM62.8506 206.07C62.2252 206.07 61.6792 205.953 61.2126 205.72C60.7459 205.487 60.3819 205.137 60.1206 204.67C59.8686 204.203 59.7426 203.62 59.7426 202.92V198.65H60.7366V202.808C60.7366 203.592 60.9279 204.185 61.3106 204.586C61.7026 204.978 62.2486 205.174 62.9486 205.174C63.4619 205.174 63.9052 205.071 64.2786 204.866C64.6612 204.651 64.9506 204.343 65.1466 203.942C65.3519 203.541 65.4546 203.06 65.4546 202.5V198.65H66.4486V206H65.4966V203.984L65.6506 204.348C65.4172 204.889 65.0532 205.314 64.5586 205.622C64.0732 205.921 63.5039 206.07 62.8506 206.07ZM73.1708 198.58C73.7681 198.58 74.2908 198.697 74.7388 198.93C75.1961 199.154 75.5508 199.499 75.8028 199.966C76.0641 200.433 76.1948 201.021 76.1948 201.73V206H75.2008V201.828C75.2008 201.053 75.0048 200.47 74.6128 200.078C74.2301 199.677 73.6888 199.476 72.9888 199.476C72.4661 199.476 72.0088 199.583 71.6168 199.798C71.2341 200.003 70.9355 200.307 70.7208 200.708C70.5155 201.1 70.4128 201.576 70.4128 202.136V206H69.4188V198.65H70.3708V200.666L70.2168 200.288C70.4501 199.756 70.8235 199.341 71.3368 199.042C71.8501 198.734 72.4615 198.58 73.1708 198.58ZM79.0797 206V198.65H80.0737V206H79.0797ZM79.5837 197.026C79.3784 197.026 79.2057 196.956 79.0657 196.816C78.9257 196.676 78.8557 196.508 78.8557 196.312C78.8557 196.116 78.9257 195.953 79.0657 195.822C79.2057 195.682 79.3784 195.612 79.5837 195.612C79.7891 195.612 79.9617 195.677 80.1017 195.808C80.2417 195.939 80.3117 196.102 80.3117 196.298C80.3117 196.503 80.2417 196.676 80.1017 196.816C79.9711 196.956 79.7984 197.026 79.5837 197.026ZM86.0915 206.07C85.3635 206.07 84.7102 205.911 84.1315 205.594C83.5622 205.267 83.1142 204.824 82.7875 204.264C82.4609 203.695 82.2975 203.046 82.2975 202.318C82.2975 201.581 82.4609 200.932 82.7875 200.372C83.1142 199.812 83.5622 199.373 84.1315 199.056C84.7102 198.739 85.3635 198.58 86.0915 198.58C86.7169 198.58 87.2815 198.701 87.7855 198.944C88.2895 199.187 88.6862 199.551 88.9755 200.036L88.2335 200.54C87.9815 200.167 87.6689 199.891 87.2955 199.714C86.9222 199.537 86.5162 199.448 86.0775 199.448C85.5549 199.448 85.0835 199.569 84.6635 199.812C84.2435 200.045 83.9122 200.377 83.6695 200.806C83.4269 201.235 83.3055 201.739 83.3055 202.318C83.3055 202.897 83.4269 203.401 83.6695 203.83C83.9122 204.259 84.2435 204.595 84.6635 204.838C85.0835 205.071 85.5549 205.188 86.0775 205.188C86.5162 205.188 86.9222 205.099 87.2955 204.922C87.6689 204.745 87.9815 204.474 88.2335 204.11L88.9755 204.614C88.6862 205.09 88.2895 205.454 87.7855 205.706C87.2815 205.949 86.7169 206.07 86.0915 206.07ZM95.7342 206V204.376L95.6922 204.11V201.394C95.6922 200.769 95.5149 200.288 95.1602 199.952C94.8149 199.616 94.2969 199.448 93.6062 199.448C93.1302 199.448 92.6775 199.527 92.2482 199.686C91.8189 199.845 91.4549 200.055 91.1562 200.316L90.7082 199.574C91.0815 199.257 91.5295 199.014 92.0522 198.846C92.5749 198.669 93.1255 198.58 93.7042 198.58C94.6562 198.58 95.3889 198.818 95.9022 199.294C96.4249 199.761 96.6862 200.475 96.6862 201.436V206H95.7342ZM93.2002 206.07C92.6495 206.07 92.1689 205.981 91.7582 205.804C91.3569 205.617 91.0489 205.365 90.8342 205.048C90.6195 204.721 90.5122 204.348 90.5122 203.928C90.5122 203.545 90.6009 203.2 90.7782 202.892C90.9649 202.575 91.2635 202.323 91.6742 202.136C92.0942 201.94 92.6542 201.842 93.3542 201.842H95.8882V202.584H93.3822C92.6729 202.584 92.1782 202.71 91.8982 202.962C91.6275 203.214 91.4922 203.527 91.4922 203.9C91.4922 204.32 91.6555 204.656 91.9822 204.908C92.3089 205.16 92.7662 205.286 93.3542 205.286C93.9142 205.286 94.3949 205.16 94.7962 204.908C95.2069 204.647 95.5055 204.273 95.6922 203.788L95.9162 204.474C95.7295 204.959 95.4029 205.347 94.9362 205.636C94.4789 205.925 93.9002 206.07 93.2002 206.07ZM101.91 206.07C101.219 206.07 100.687 205.883 100.314 205.51C99.9407 205.137 99.754 204.609 99.754 203.928V197.026H100.748V203.872C100.748 204.301 100.855 204.633 101.07 204.866C101.294 205.099 101.611 205.216 102.022 205.216C102.461 205.216 102.825 205.09 103.114 204.838L103.464 205.552C103.268 205.729 103.03 205.86 102.75 205.944C102.479 206.028 102.199 206.07 101.91 206.07ZM98.438 199.476V198.65H102.988V199.476H98.438ZM108.336 206.07C107.57 206.07 106.898 205.911 106.32 205.594C105.741 205.267 105.288 204.824 104.962 204.264C104.635 203.695 104.472 203.046 104.472 202.318C104.472 201.59 104.626 200.946 104.934 200.386C105.251 199.826 105.68 199.387 106.222 199.07C106.772 198.743 107.388 198.58 108.07 198.58C108.76 198.58 109.372 198.739 109.904 199.056C110.445 199.364 110.87 199.803 111.178 200.372C111.486 200.932 111.64 201.581 111.64 202.318C111.64 202.365 111.635 202.416 111.626 202.472C111.626 202.519 111.626 202.57 111.626 202.626H105.228V201.884H111.094L110.702 202.178C110.702 201.646 110.585 201.175 110.352 200.764C110.128 200.344 109.82 200.017 109.428 199.784C109.036 199.551 108.583 199.434 108.07 199.434C107.566 199.434 107.113 199.551 106.712 199.784C106.31 200.017 105.998 200.344 105.774 200.764C105.55 201.184 105.438 201.665 105.438 202.206V202.36C105.438 202.92 105.559 203.415 105.802 203.844C106.054 204.264 106.399 204.595 106.838 204.838C107.286 205.071 107.794 205.188 108.364 205.188C108.812 205.188 109.227 205.109 109.61 204.95C110.002 204.791 110.338 204.549 110.618 204.222L111.178 204.866C110.851 205.258 110.44 205.557 109.946 205.762C109.46 205.967 108.924 206.07 108.336 206.07ZM119.225 206L116.453 198.65H117.405L119.925 205.468H119.491L122.081 198.65H122.935L125.497 205.468H125.063L127.625 198.65H128.535L125.749 206H124.811L122.347 199.588H122.641L120.163 206H119.225ZM130.232 206V198.65H131.226V206H130.232ZM130.736 197.026C130.53 197.026 130.358 196.956 130.218 196.816C130.078 196.676 130.008 196.508 130.008 196.312C130.008 196.116 130.078 195.953 130.218 195.822C130.358 195.682 130.53 195.612 130.736 195.612C130.941 195.612 131.114 195.677 131.254 195.808C131.394 195.939 131.464 196.102 131.464 196.298C131.464 196.503 131.394 196.676 131.254 196.816C131.123 196.956 130.95 197.026 130.736 197.026ZM136.515 206.07C135.825 206.07 135.293 205.883 134.919 205.51C134.546 205.137 134.359 204.609 134.359 203.928V197.026H135.353V203.872C135.353 204.301 135.461 204.633 135.675 204.866C135.899 205.099 136.217 205.216 136.627 205.216C137.066 205.216 137.43 205.09 137.719 204.838L138.069 205.552C137.873 205.729 137.635 205.86 137.355 205.944C137.085 206.028 136.805 206.07 136.515 206.07ZM133.043 199.476V198.65H137.593V199.476H133.043ZM143.831 198.58C144.428 198.58 144.951 198.697 145.399 198.93C145.856 199.154 146.211 199.499 146.463 199.966C146.724 200.433 146.855 201.021 146.855 201.73V206H145.861V201.828C145.861 201.053 145.665 200.47 145.273 200.078C144.89 199.677 144.349 199.476 143.649 199.476C143.126 199.476 142.669 199.583 142.277 199.798C141.894 200.003 141.596 200.307 141.381 200.708C141.176 201.1 141.073 201.576 141.073 202.136V206H140.079V195.612H141.073V200.666L140.877 200.288C141.11 199.756 141.484 199.341 141.997 199.042C142.51 198.734 143.122 198.58 143.831 198.58ZM153.66 208.786C153.315 208.786 152.983 208.73 152.666 208.618C152.358 208.506 152.092 208.338 151.868 208.114L152.33 207.372C152.517 207.549 152.717 207.685 152.932 207.778C153.156 207.881 153.403 207.932 153.674 207.932C154.001 207.932 154.281 207.839 154.514 207.652C154.757 207.475 154.985 207.157 155.2 206.7L155.676 205.622L155.788 205.468L158.812 198.65H159.792L156.11 206.882C155.905 207.358 155.676 207.736 155.424 208.016C155.181 208.296 154.915 208.492 154.626 208.604C154.337 208.725 154.015 208.786 153.66 208.786ZM155.62 206.21L152.232 198.65H153.268L156.264 205.398L155.62 206.21ZM164.183 206.07C163.473 206.07 162.834 205.911 162.265 205.594C161.705 205.267 161.261 204.824 160.935 204.264C160.608 203.695 160.445 203.046 160.445 202.318C160.445 201.581 160.608 200.932 160.935 200.372C161.261 199.812 161.705 199.373 162.265 199.056C162.825 198.739 163.464 198.58 164.183 198.58C164.911 198.58 165.555 198.739 166.115 199.056C166.684 199.373 167.127 199.812 167.445 200.372C167.771 200.932 167.935 201.581 167.935 202.318C167.935 203.046 167.771 203.695 167.445 204.264C167.127 204.824 166.684 205.267 166.115 205.594C165.545 205.911 164.901 206.07 164.183 206.07ZM164.183 205.188C164.715 205.188 165.186 205.071 165.597 204.838C166.007 204.595 166.329 204.259 166.563 203.83C166.805 203.391 166.927 202.887 166.927 202.318C166.927 201.739 166.805 201.235 166.563 200.806C166.329 200.377 166.007 200.045 165.597 199.812C165.186 199.569 164.719 199.448 164.197 199.448C163.674 199.448 163.207 199.569 162.797 199.812C162.386 200.045 162.059 200.377 161.817 200.806C161.574 201.235 161.453 201.739 161.453 202.318C161.453 202.887 161.574 203.391 161.817 203.83C162.059 204.259 162.386 204.595 162.797 204.838C163.207 205.071 163.669 205.188 164.183 205.188ZM173.202 206.07C172.577 206.07 172.031 205.953 171.564 205.72C171.097 205.487 170.733 205.137 170.472 204.67C170.22 204.203 170.094 203.62 170.094 202.92V198.65H171.088V202.808C171.088 203.592 171.279 204.185 171.662 204.586C172.054 204.978 172.6 205.174 173.3 205.174C173.813 205.174 174.257 205.071 174.63 204.866C175.013 204.651 175.302 204.343 175.498 203.942C175.703 203.541 175.806 203.06 175.806 202.5V198.65H176.8V206H175.848V203.984L176.002 204.348C175.769 204.889 175.405 205.314 174.91 205.622C174.425 205.921 173.855 206.07 173.202 206.07ZM179.77 206V198.65H180.722V200.652L180.624 200.302C180.83 199.742 181.175 199.317 181.66 199.028C182.146 198.729 182.748 198.58 183.466 198.58V199.546C183.429 199.546 183.392 199.546 183.354 199.546C183.317 199.537 183.28 199.532 183.242 199.532C182.468 199.532 181.861 199.77 181.422 200.246C180.984 200.713 180.764 201.38 180.764 202.248V206H179.77ZM191.778 206.07C191.087 206.07 190.555 205.883 190.182 205.51C189.808 205.137 189.622 204.609 189.622 203.928V197.026H190.616V203.872C190.616 204.301 190.723 204.633 190.938 204.866C191.162 205.099 191.479 205.216 191.89 205.216C192.328 205.216 192.692 205.09 192.982 204.838L193.332 205.552C193.136 205.729 192.898 205.86 192.618 205.944C192.347 206.028 192.067 206.07 191.778 206.07ZM188.306 199.476V198.65H192.856V199.476H188.306ZM198.203 206.07C197.438 206.07 196.766 205.911 196.187 205.594C195.609 205.267 195.156 204.824 194.829 204.264C194.503 203.695 194.339 203.046 194.339 202.318C194.339 201.59 194.493 200.946 194.801 200.386C195.119 199.826 195.548 199.387 196.089 199.07C196.64 198.743 197.256 198.58 197.937 198.58C198.628 198.58 199.239 198.739 199.771 199.056C200.313 199.364 200.737 199.803 201.045 200.372C201.353 200.932 201.507 201.581 201.507 202.318C201.507 202.365 201.503 202.416 201.493 202.472C201.493 202.519 201.493 202.57 201.493 202.626H195.095V201.884H200.961L200.569 202.178C200.569 201.646 200.453 201.175 200.219 200.764C199.995 200.344 199.687 200.017 199.295 199.784C198.903 199.551 198.451 199.434 197.937 199.434C197.433 199.434 196.981 199.551 196.579 199.784C196.178 200.017 195.865 200.344 195.641 200.764C195.417 201.184 195.305 201.665 195.305 202.206V202.36C195.305 202.92 195.427 203.415 195.669 203.844C195.921 204.264 196.267 204.595 196.705 204.838C197.153 205.071 197.662 205.188 198.231 205.188C198.679 205.188 199.095 205.109 199.477 204.95C199.869 204.791 200.205 204.549 200.485 204.222L201.045 204.866C200.719 205.258 200.308 205.557 199.813 205.762C199.328 205.967 198.791 206.07 198.203 206.07ZM208.131 206V204.376L208.089 204.11V201.394C208.089 200.769 207.912 200.288 207.557 199.952C207.212 199.616 206.694 199.448 206.003 199.448C205.527 199.448 205.075 199.527 204.645 199.686C204.216 199.845 203.852 200.055 203.553 200.316L203.105 199.574C203.479 199.257 203.927 199.014 204.449 198.846C204.972 198.669 205.523 198.58 206.101 198.58C207.053 198.58 207.786 198.818 208.299 199.294C208.822 199.761 209.083 200.475 209.083 201.436V206H208.131ZM205.597 206.07C205.047 206.07 204.566 205.981 204.155 205.804C203.754 205.617 203.446 205.365 203.231 205.048C203.017 204.721 202.909 204.348 202.909 203.928C202.909 203.545 202.998 203.2 203.175 202.892C203.362 202.575 203.661 202.323 204.071 202.136C204.491 201.94 205.051 201.842 205.751 201.842H208.285V202.584H205.779C205.07 202.584 204.575 202.71 204.295 202.962C204.025 203.214 203.889 203.527 203.889 203.9C203.889 204.32 204.053 204.656 204.379 204.908C204.706 205.16 205.163 205.286 205.751 205.286C206.311 205.286 206.792 205.16 207.193 204.908C207.604 204.647 207.903 204.273 208.089 203.788L208.313 204.474C208.127 204.959 207.8 205.347 207.333 205.636C206.876 205.925 206.297 206.07 205.597 206.07ZM221.167 198.58C221.765 198.58 222.283 198.697 222.721 198.93C223.169 199.154 223.515 199.499 223.757 199.966C224.009 200.433 224.135 201.021 224.135 201.73V206H223.141V201.828C223.141 201.053 222.955 200.47 222.581 200.078C222.217 199.677 221.699 199.476 221.027 199.476C220.523 199.476 220.085 199.583 219.711 199.798C219.347 200.003 219.063 200.307 218.857 200.708C218.661 201.1 218.563 201.576 218.563 202.136V206H217.569V201.828C217.569 201.053 217.383 200.47 217.009 200.078C216.636 199.677 216.113 199.476 215.441 199.476C214.947 199.476 214.513 199.583 214.139 199.798C213.766 200.003 213.477 200.307 213.271 200.708C213.075 201.1 212.977 201.576 212.977 202.136V206H211.983V198.65H212.935V200.638L212.781 200.288C213.005 199.756 213.365 199.341 213.859 199.042C214.363 198.734 214.956 198.58 215.637 198.58C216.356 198.58 216.967 198.762 217.471 199.126C217.975 199.481 218.302 200.017 218.451 200.736L218.059 200.582C218.274 199.985 218.652 199.504 219.193 199.14C219.744 198.767 220.402 198.58 221.167 198.58ZM227.129 206.07C226.924 206.07 226.746 205.995 226.597 205.846C226.457 205.697 226.387 205.515 226.387 205.3C226.387 205.076 226.457 204.894 226.597 204.754C226.746 204.614 226.924 204.544 227.129 204.544C227.334 204.544 227.507 204.614 227.647 204.754C227.796 204.894 227.871 205.076 227.871 205.3C227.871 205.515 227.796 205.697 227.647 205.846C227.507 205.995 227.334 206.07 227.129 206.07Z" fill="#737373"/>
</svg>
